<svg id="visual" viewBox="0 0 450 900" width="450" height="900" xmlns="http://www.w3.org/2000/svg" xmlns:xlink="http://www.w3.org/1999/xlink" version="1.1"><rect x="0" y="0" width="450" height="900" fill="#DCDCDE"></rect><path d="M0 522L15 513.3C30 504.7 60 487.3 90 466.8C120 446.3 150 422.7 180 432.2C210 441.7 240 484.3 270 490.7C300 497 330 467 360 457C390 447 420 457 435 462L450 467L450 901L435 901C420 901 390 901 360 901C330 901 300 901 270 901C240 901 210 901 180 901C150 901 120 901 90 901C60 901 30 901 15 901L0 901Z" fill="#c5c5c9" stroke-linecap="round" stroke-linejoin="miter"></path></svg>