<?xml version="1.0" encoding="UTF-8"?>
<svg id="Capa_1" xmlns="http://www.w3.org/2000/svg" version="1.1" viewBox="0 0 381.96 170.49">
  <!-- Generator: Adobe Illustrator 29.6.1, SVG Export Plug-In . SVG Version: 2.1.1 Build 9)  -->
  <defs>
    <style>
      .st0 {
        fill: #397aab;
      }

      .st0, .st1, .st2, .st3, .st4, .st5, .st6, .st7, .st8, .st9 {
        fill-rule: evenodd;
      }

      .st1 {
        fill: #045692;
      }

      .st2 {
        fill: #495aa0;
      }

      .st3 {
        fill: #405189;
      }

      .st4 {
        fill: #36749a;
      }

      .st5 {
        fill: #af8842;
      }

      .st6 {
        fill: #99763d;
      }

      .st10, .st8 {
        fill: #14385b;
      }

      .st7 {
        fill: #3f8aca;
      }

      .st9 {
        fill: #daac50;
      }
    </style>
  </defs>
  <path class="st1" d="M56.22,36.77c13.69,0,24.78,11.09,24.78,24.78s-11.09,24.78-24.78,24.78-24.78-11.09-24.78-24.78,11.09-24.78,24.78-24.78M56.22,29.48c17.71,0,32.07,14.36,32.07,32.07s-14.36,32.07-32.07,32.07-32.07-14.36-32.07-32.07,14.36-32.07,32.07-32.07Z"/>
  <path class="st1" d="M102.96,108.29c-2.17,2.17-5.71,2.17-7.88,0-7.4-7.4-12.83-16.77-17.26-21.19-1.86.49-3.93.01-5.38-1.44l-.45-.45c1.5-1.05,2.94-2.25,4.28-3.6,1.34-1.34,2.54-2.78,3.6-4.28l.45.45c1.45,1.45,1.93,3.52,1.44,5.38,4.43,4.43,13.8,9.86,21.19,17.26,2.17,2.17,2.17,5.71,0,7.88"/>
  <path class="st2" d="M54.27,74.81c-1.67-.75-2.83-2.42-2.83-4.36,0-2.64,2.14-4.78,4.78-4.78s4.78,2.14,4.78,4.78c0,1.94-1.16,3.62-2.83,4.36,2.73.84,4.74,3.39,4.74,6.39v2.16c-2.11.65-4.36,1-6.69,1s-4.57-.35-6.69-1v-2.16c0-3,2-5.55,4.74-6.39"/>
  <path class="st9" d="M42.06,73.46c-.53-1.4-.24-3.03.89-4.16,1.53-1.53,4-1.53,5.53,0,1.53,1.53,1.53,4,0,5.53-1.12,1.12-2.76,1.42-4.16.89.87,1.64.85,3.63-.06,5.26-3.03-1.87-5.58-4.43-7.45-7.45,1.62-.91,3.62-.93,5.26-.06"/>
  <path class="st6" d="M44.31,47.39c1.4-.53,3.03-.24,4.16.89,1.53,1.53,1.53,4,0,5.53-1.53,1.53-4,1.53-5.53,0-1.12-1.12-1.42-2.76-.89-4.16-1.64.87-3.63.85-5.26-.06,1.87-3.03,4.43-5.58,7.45-7.45.91,1.62.93,3.62.06,5.26"/>
  <path class="st4" d="M70.39,49.64c.53,1.4.24,3.03-.89,4.16-1.53,1.53-4,1.53-5.53,0-1.53-1.53-1.53-4,0-5.53,1.12-1.12,2.76-1.42,4.16-.89-.87-1.64-.85-3.63.06-5.26,3.03,1.87,5.58,4.43,7.45,7.45-1.62.91-3.62.93-5.26.06"/>
  <path class="st7" d="M68.13,75.72c-1.4.53-3.03.24-4.16-.89-1.53-1.53-1.53-4,0-5.53,1.53-1.53,4-1.53,5.53,0,1.12,1.12,1.42,2.76.89,4.16,1.64-.87,3.63-.85,5.26.06-1.87,3.03-4.43,5.58-7.45,7.45-.91-1.62-.93-3.62-.06-5.26"/>
  <path class="st0" d="M69.49,63.5c-.75,1.67-2.42,2.83-4.36,2.83-2.64,0-4.78-2.14-4.78-4.78s2.14-4.78,4.78-4.78c1.94,0,3.62,1.16,4.36,2.83.84-2.73,3.39-4.74,6.39-4.74h2.16c.65,2.11,1,4.36,1,6.69s-.35,4.57-1,6.69h-2.16c-3,0-5.55-2-6.39-4.74"/>
  <path class="st3" d="M58.17,48.29c1.67.75,2.83,2.42,2.83,4.36,0,2.64-2.14,4.78-4.78,4.78s-4.78-2.14-4.78-4.78c0-1.94,1.16-3.62,2.83-4.36-2.73-.84-4.74-3.39-4.74-6.39v-2.16c2.11-.65,4.36-1,6.69-1s4.57.35,6.69,1v2.16c0,3-2,5.55-4.74,6.39"/>
  <path class="st5" d="M42.96,59.6c.75-1.67,2.42-2.83,4.36-2.83,2.64,0,4.78,2.14,4.78,4.78s-2.14,4.78-4.78,4.78c-1.94,0-3.62-1.16-4.36-2.83-.84,2.73-3.39,4.74-6.39,4.74h-2.16c-.65-2.11-1-4.36-1-6.69s.35-4.57,1-6.69h2.16c3,0,5.55,2,6.39,4.74"/>
  <path class="st8" d="M56.22,21.98c21.85,0,39.57,17.71,39.57,39.57,0,9.03-3.03,17.35-8.12,24.01-.19-.14-.38-.29-.56-.43-.71-.55-1.44-1.12-2.14-1.71,4.62-6.07,7.37-13.64,7.37-21.86,0-19.94-16.17-36.11-36.11-36.11S20.11,41.61,20.11,61.55s16.17,36.11,36.11,36.11c8.22,0,15.79-2.75,21.86-7.37.59.7,1.16,1.43,1.71,2.14.14.19.29.38.43.56-6.66,5.09-14.98,8.12-24.01,8.12-21.85,0-39.57-17.71-39.57-39.57S34.37,21.98,56.22,21.98"/>
  <path class="st10" d="M135.38,33.58c-.58,0-1.06-.52-1.06-1.2,0-.63.48-1.17,1.06-1.17s1.06.54,1.06,1.17c0,.68-.48,1.2-1.06,1.2ZM135.38,36.29c1.93,0,3.5-1.72,3.5-3.89s-1.57-3.9-3.5-3.9-3.5,1.79-3.5,3.9,1.55,3.89,3.5,3.89Z"/>
  <path class="st10" d="M144.19,36.87c0,4.79,2.92,8.37,7.25,8.37,3.62,0,5.57-2.71,5.57-2.71l-1.74-2.88s-1.59,1.98-3.68,1.98c-2.55,0-3.91-2.47-3.91-4.85s1.26-4.61,3.91-4.61c1.91,0,3.46,1.65,3.46,1.65l1.57-2.98s-1.76-2.28-5.19-2.28c-4.16,0-7.25,3.61-7.25,8.3Z"/>
  <path class="st10" d="M161.15,39.2c0-1.76,1.05-2.87,2.26-2.87s2.26,1.11,2.26,2.87-1.05,2.81-2.26,2.81-2.26-1.06-2.26-2.81ZM157.77,39.2c0,3.63,2.52,6.05,5.65,6.05s5.65-2.42,5.65-6.05-2.52-6.11-5.67-6.11-5.63,2.45-5.63,6.11Z"/>
  <path class="st10" d="M170.63,44.97h3.35v-5.14c0-.57.06-1.09.19-1.53.29-.99.93-1.68,1.97-1.68.73,0,1.1.45,1.1,1.53v6.82h3.35v-7.54c0-3.27-1.57-4.35-3.58-4.35-1.76,0-2.71,1.11-3.17,2.01h-.04s.04-.34.04-.72v-1.01h-3.21v11.62Z"/>
  <path class="st10" d="M187.39,41.39c-1.34,0-1.92-1.29-1.92-2.74,0-1.32.6-2.32,1.78-2.32,1.01,0,1.93.46,1.93,2.51s-.93,2.55-1.8,2.55ZM184,45.72l-.95,2.96c.97.59,2.44,1.04,3.77,1.04,2.73,0,5.63-1.56,5.63-5.8v-10.56h-3.13v.59c0,.13.02.26.02.26h-.06s-.89-1.12-2.71-1.12c-3.02,0-4.47,2.75-4.47,5.71s1.49,5.84,4.49,5.84c1.16,0,1.92-.4,2.5-1.22h.04s-.02.29-.02.42v.39c0,1.71-1.1,2.23-2.3,2.23-1.57,0-2.8-.74-2.8-.74Z"/>
  <path class="st10" d="M194.76,44.97h3.35v-4.4c0-.64.06-1.16.17-1.58.48-1.73,1.78-2.03,2.57-2.03.41,0,.68.07.68.07v-3.85s-.19-.04-.39-.04c-1.49,0-2.75,1.31-3.17,2.88h-.04s.04-.33.04-.72v-1.96h-3.21v11.62Z"/>
  <path class="st10" d="M205.69,37.69c.17-.86.64-1.66,1.61-1.66.79,0,1.32.79,1.32,1.66h-2.92ZM202.18,39.15c0,3.1,1.92,6.1,5.48,6.1,2.65,0,4.26-1.69,4.26-1.69l-1.24-2.74s-1.32,1.18-2.75,1.18c-1.06,0-2.07-.66-2.32-2.08h6.29s.08-.84.08-1.23c0-3.22-1.66-5.61-4.6-5.61-3.21,0-5.19,2.67-5.19,6.06Z"/>
  <path class="st10" d="M212.84,43.54s1.49,1.71,3.98,1.71,4.08-1.69,4.08-3.68c0-3.74-4.66-3.88-4.66-4.75,0-.41.48-.57.99-.57,1.39,0,2.36.94,2.36.94l1.14-2.77s-1.18-1.33-3.5-1.33-4.1,1.36-4.1,3.54c0,3.8,4.66,3.9,4.66,4.92,0,.39-.48.54-.99.54-1.43,0-2.53-1.17-2.53-1.17l-1.43,2.62Z"/>
  <path class="st10" d="M225.21,39.2c0-1.76,1.05-2.87,2.26-2.87s2.26,1.11,2.26,2.87-1.05,2.81-2.26,2.81-2.26-1.06-2.26-2.81ZM221.82,39.2c0,3.63,2.51,6.05,5.65,6.05s5.65-2.42,5.65-6.05-2.51-6.11-5.67-6.11-5.63,2.45-5.63,6.11Z"/>
  <path class="st10" d="M239.33,44.97h3.39v-7.51c0-1.01-.15-2.75-.15-2.75h.04s.62,1.69,1.16,2.75l3.85,7.51h3.4v-16.14h-3.39v7.54c0,1.01.15,2.76.15,2.76h-.04s-.62-1.7-1.16-2.76l-3.83-7.54h-3.42v16.14Z"/>
  <path class="st10" d="M256.31,41.29c0-.97,1.22-1.33,2.28-1.33h.31v.25c0,.96-.77,2.06-1.64,2.06-.66,0-.95-.44-.95-.98ZM252.95,41.49c0,2.31,1.53,3.75,3.39,3.75,2.09,0,2.82-1.69,2.82-1.69h.04s-.04.33-.04.72v.7h3.06v-7.15c0-2.96-1.68-4.74-4.49-4.74-2.46,0-4.18,1.51-4.18,1.51l1.16,2.75s1.43-1.1,2.69-1.1c.83,0,1.47.31,1.47,1.29v.2h-.14c-1.55,0-5.78.38-5.78,3.76Z"/>
  <path class="st10" d="M263.63,39.15c0,3.21,1.99,6.1,5.55,6.1,2.79,0,4.27-1.92,4.27-1.92l-1.22-2.73s-1.34,1.4-2.73,1.4c-1.68,0-2.5-1.52-2.5-2.89s.79-2.78,2.38-2.78c1.37,0,2.34,1.13,2.34,1.13l1.41-2.62s-1.26-1.76-3.97-1.76c-3.58,0-5.55,2.95-5.55,6.06Z"/>
  <path class="st10" d="M274.85,44.97h3.35v-11.62h-3.35v11.62ZM274.89,31.88h3.27v-3.05h-3.27v3.05Z"/>
  <path class="st10" d="M283.15,39.2c0-1.76,1.05-2.87,2.26-2.87s2.26,1.11,2.26,2.87-1.05,2.81-2.26,2.81-2.26-1.06-2.26-2.81ZM279.76,39.2c0,3.63,2.51,6.05,5.65,6.05s5.65-2.42,5.65-6.05-2.52-6.11-5.67-6.11-5.63,2.45-5.63,6.11Z"/>
  <path class="st10" d="M292.62,44.97h3.35v-5.14c0-.57.06-1.09.19-1.53.29-.99.93-1.68,1.97-1.68.74,0,1.1.45,1.1,1.53v6.82h3.35v-7.54c0-3.27-1.57-4.35-3.58-4.35-1.76,0-2.71,1.11-3.17,2.01h-.04s.04-.34.04-.72v-1.01h-3.21v11.62Z"/>
  <path class="st10" d="M307.37,41.29c0-.97,1.22-1.33,2.28-1.33h.31v.25c0,.96-.77,2.06-1.64,2.06-.66,0-.95-.44-.95-.98ZM304,41.49c0,2.31,1.53,3.75,3.39,3.75,2.09,0,2.83-1.69,2.83-1.69h.04s-.04.33-.04.72v.7h3.06v-7.15c0-2.96-1.68-4.74-4.49-4.74-2.46,0-4.18,1.51-4.18,1.51l1.16,2.75s1.43-1.1,2.69-1.1c.83,0,1.47.31,1.47,1.29v.2h-.14c-1.55,0-5.78.38-5.78,3.76Z"/>
  <path class="st10" d="M315.28,40.69c0,3.9,1.9,4.4,3.68,4.4.54,0,1.01-.07,1.01-.07v-3.39s-.19.02-.41.02c-.75,0-.93-.39-.93-1.49v-11.34h-3.35v11.85Z"/>
  <path class="st10" d="M328.43,39.15c0-1.78.91-2.77,1.95-2.77,1.32,0,1.95,1.38,1.95,2.77,0,2.02-.95,2.87-1.95,2.87-1.16,0-1.95-1.12-1.95-2.87ZM325.07,39.15c0,3.62,1.78,6.1,4.49,6.1,2.05,0,2.88-1.69,2.88-1.69h.04s-.02.28-.02.65v.77h3.13v-16.14h-3.35v4.65c0,.29.02.52.02.52h-.04s-.6-.92-2.61-.92c-2.65,0-4.55,2.39-4.55,6.06Z"/>
  <path class="st10" d="M340.68,37.69c.17-.86.64-1.66,1.61-1.66.79,0,1.32.79,1.32,1.66h-2.92ZM337.18,39.15c0,3.1,1.92,6.1,5.47,6.1,2.65,0,4.26-1.69,4.26-1.69l-1.24-2.74s-1.32,1.18-2.75,1.18c-1.06,0-2.07-.66-2.32-2.08h6.29s.08-.84.08-1.23c0-3.22-1.66-5.61-4.61-5.61-3.21,0-5.18,2.67-5.18,6.06Z"/>
  <rect class="st10" x="110.33" y="55.92" width="3.39" height="16.14"/>
  <path class="st10" d="M116.41,72.06h3.35v-5.14c0-.57.06-1.08.19-1.53.29-.99.93-1.67,1.97-1.67.73,0,1.1.45,1.1,1.53v6.82h3.35v-7.54c0-3.27-1.57-4.35-3.58-4.35-1.76,0-2.71,1.11-3.17,2h-.04s.04-.34.04-.72v-1.01h-3.21v11.62Z"/>
  <path class="st10" d="M130.7,72.06h4.08l3.39-11.62h-3.54l-1.53,6.18c-.19.77-.37,2.01-.37,2.01h-.04s-.17-1.27-.37-2.01l-1.55-6.18h-3.52l3.44,11.62Z"/>
  <path class="st10" d="M142.02,64.77c.17-.86.64-1.68,1.61-1.68.79,0,1.32.79,1.32,1.68h-2.92ZM138.52,66.23c0,3.1,1.92,6.1,5.48,6.1,2.65,0,4.26-1.69,4.26-1.69l-1.24-2.73s-1.32,1.17-2.75,1.17c-1.06,0-2.07-.65-2.32-2.08h6.29s.08-.83.08-1.22c0-3.22-1.66-5.61-4.6-5.61-3.21,0-5.19,2.67-5.19,6.06Z"/>
  <path class="st10" d="M149.18,70.61s1.49,1.71,3.99,1.71,4.08-1.69,4.08-3.68c0-3.74-4.66-3.88-4.66-4.77,0-.4.48-.55.99-.55,1.39,0,2.36.94,2.36.94l1.14-2.77s-1.18-1.33-3.5-1.33-4.1,1.36-4.1,3.54c0,3.8,4.66,3.9,4.66,4.92,0,.38-.48.54-.99.54-1.43,0-2.53-1.17-2.53-1.17l-1.43,2.61Z"/>
  <path class="st10" d="M159.39,67.78c0,3.9,3.07,4.4,4.66,4.4.54,0,.91-.07.91-.07v-3.39s-.17.02-.44.02c-.64,0-1.78-.18-1.78-1.48v-3.57h2.09v-3.04h-2.09v-3.34h-3.25v3.34h-1.37v3.04h1.28v4.09Z"/>
  <path class="st10" d="M166.74,72.06h3.35v-11.62h-3.35v11.62ZM166.78,58.96h3.27v-3.05h-3.27v3.05Z"/>
  <path class="st10" d="M177.02,68.47c-1.34,0-1.92-1.28-1.92-2.74,0-1.33.6-2.32,1.78-2.32,1.01,0,1.93.46,1.93,2.51s-.93,2.55-1.8,2.55ZM173.63,72.8l-.95,2.96c.97.59,2.44,1.04,3.77,1.04,2.73,0,5.63-1.56,5.63-5.8v-10.56h-3.13v.58c0,.14.02.27.02.27h-.06s-.89-1.12-2.71-1.12c-3.02,0-4.47,2.75-4.47,5.71s1.49,5.84,4.49,5.84c1.16,0,1.92-.41,2.5-1.22h.04s-.02.29-.02.43v.38c0,1.71-1.1,2.23-2.3,2.23-1.57,0-2.8-.74-2.8-.74Z"/>
  <path class="st10" d="M187,68.38c0-.97,1.22-1.34,2.28-1.34h.31v.25c0,.96-.77,2.06-1.64,2.06-.66,0-.95-.43-.95-.97ZM183.63,68.58c0,2.3,1.53,3.75,3.39,3.75,2.09,0,2.83-1.69,2.83-1.69h.04s-.04.34-.04.72v.7h3.06v-7.15c0-2.96-1.68-4.74-4.49-4.74-2.46,0-4.18,1.51-4.18,1.51l1.16,2.75s1.43-1.1,2.69-1.1c.83,0,1.47.31,1.47,1.29v.2h-.13c-1.55,0-5.78.38-5.78,3.77Z"/>
  <path class="st10" d="M194.31,66.23c0,3.21,1.99,6.1,5.55,6.1,2.79,0,4.28-1.92,4.28-1.92l-1.22-2.73s-1.34,1.4-2.73,1.4c-1.68,0-2.5-1.52-2.5-2.88s.79-2.78,2.38-2.78c1.37,0,2.34,1.13,2.34,1.13l1.41-2.62s-1.26-1.76-3.97-1.76c-3.58,0-5.55,2.95-5.55,6.06Z"/>
  <path class="st10" d="M205.53,72.06h3.35v-11.62h-3.35v11.62ZM205.57,58.96h3.27v-3.05h-3.27v3.05Z"/>
  <path class="st10" d="M214.7,59.31h2.59l2.28-3.39h-3.31l-1.57,3.39ZM213.83,66.28c0-1.76,1.04-2.87,2.26-2.87s2.26,1.11,2.26,2.87-1.04,2.8-2.26,2.8-2.26-1.06-2.26-2.8ZM210.45,66.28c0,3.64,2.52,6.05,5.65,6.05s5.65-2.41,5.65-6.05-2.52-6.11-5.67-6.11-5.63,2.45-5.63,6.11Z"/>
  <path class="st10" d="M223.31,72.06h3.35v-5.14c0-.57.06-1.08.19-1.53.29-.99.93-1.67,1.97-1.67.73,0,1.1.45,1.1,1.53v6.82h3.35v-7.54c0-3.27-1.57-4.35-3.58-4.35-1.76,0-2.71,1.11-3.17,2h-.04s.04-.34.04-.72v-1.01h-3.21v11.62Z"/>
  <path class="st10" d="M242.48,64.77c.17-.86.64-1.68,1.61-1.68.79,0,1.32.79,1.32,1.68h-2.92ZM238.98,66.23c0,3.1,1.92,6.1,5.48,6.1,2.65,0,4.26-1.69,4.26-1.69l-1.24-2.73s-1.32,1.17-2.75,1.17c-1.06,0-2.07-.65-2.32-2.08h6.29s.08-.83.08-1.22c0-3.22-1.66-5.61-4.6-5.61-3.21,0-5.19,2.67-5.19,6.06Z"/>
  <rect class="st10" x="255.06" y="55.92" width="3.39" height="16.14"/>
  <path class="st10" d="M261.13,72.06h3.35v-5.14c0-.57.06-1.08.19-1.53.29-.99.93-1.67,1.97-1.67.73,0,1.1.45,1.1,1.53v6.82h3.35v-7.54c0-3.27-1.57-4.35-3.58-4.35-1.76,0-2.71,1.11-3.17,2h-.04s.04-.34.04-.72v-1.01h-3.21v11.62Z"/>
  <path class="st10" d="M273.26,72.06h3.35v-5.14c0-.57.06-1.08.19-1.53.29-.99.93-1.67,1.97-1.67.73,0,1.1.45,1.1,1.53v6.82h3.35v-7.54c0-3.27-1.57-4.35-3.58-4.35-1.76,0-2.71,1.11-3.17,2h-.04s.04-.34.04-.72v-1.01h-3.21v11.62Z"/>
  <path class="st10" d="M288.04,66.28c0-1.76,1.04-2.87,2.26-2.87s2.26,1.11,2.26,2.87-1.05,2.8-2.26,2.8-2.26-1.06-2.26-2.8ZM284.65,66.28c0,3.64,2.51,6.05,5.65,6.05s5.65-2.41,5.65-6.05-2.51-6.11-5.67-6.11-5.63,2.45-5.63,6.11Z"/>
  <path class="st10" d="M299.69,72.06h4.08l3.39-11.62h-3.54l-1.53,6.18c-.19.77-.37,2.01-.37,2.01h-.04s-.17-1.27-.37-2.01l-1.55-6.18h-3.52l3.44,11.62Z"/>
  <path class="st10" d="M310.83,68.38c0-.97,1.22-1.34,2.28-1.34h.31v.25c0,.96-.77,2.06-1.65,2.06-.66,0-.95-.43-.95-.97ZM307.46,68.58c0,2.3,1.53,3.75,3.39,3.75,2.09,0,2.82-1.69,2.82-1.69h.04s-.04.34-.04.72v.7h3.06v-7.15c0-2.96-1.68-4.74-4.49-4.74-2.46,0-4.18,1.51-4.18,1.51l1.16,2.75s1.43-1.1,2.69-1.1c.83,0,1.47.31,1.47,1.29v.2h-.14c-1.55,0-5.78.38-5.78,3.77Z"/>
  <path class="st10" d="M318.14,66.23c0,3.21,1.99,6.1,5.55,6.1,2.79,0,4.27-1.92,4.27-1.92l-1.22-2.73s-1.34,1.4-2.73,1.4c-1.68,0-2.5-1.52-2.5-2.88s.79-2.78,2.38-2.78c1.37,0,2.34,1.13,2.34,1.13l1.41-2.62s-1.26-1.76-3.97-1.76c-3.58,0-5.55,2.95-5.55,6.06Z"/>
  <path class="st10" d="M329.36,72.06h3.35v-11.62h-3.35v11.62ZM329.4,58.96h3.27v-3.05h-3.27v3.05Z"/>
  <path class="st10" d="M338.53,59.31h2.59l2.28-3.39h-3.31l-1.57,3.39ZM337.66,66.28c0-1.76,1.04-2.87,2.26-2.87s2.26,1.11,2.26,2.87-1.05,2.8-2.26,2.8-2.26-1.06-2.26-2.8ZM334.28,66.28c0,3.64,2.51,6.05,5.65,6.05s5.65-2.41,5.65-6.05-2.51-6.11-5.67-6.11-5.63,2.45-5.63,6.11Z"/>
  <path class="st10" d="M347.14,72.06h3.35v-5.14c0-.57.06-1.08.19-1.53.29-.99.93-1.67,1.97-1.67.73,0,1.1.45,1.1,1.53v6.82h3.35v-7.54c0-3.27-1.57-4.35-3.58-4.35-1.76,0-2.71,1.11-3.17,2h-.04s.04-.34.04-.72v-1.01h-3.21v11.62Z"/>
  <path class="st10" d="M112.73,91.85c.17-.86.64-1.67,1.61-1.67.79,0,1.32.79,1.32,1.67h-2.92ZM109.23,93.32c0,3.09,1.92,6.09,5.47,6.09,2.65,0,4.26-1.69,4.26-1.69l-1.24-2.73s-1.32,1.17-2.75,1.17c-1.06,0-2.07-.65-2.32-2.08h6.29s.08-.84.08-1.22c0-3.23-1.66-5.62-4.6-5.62-3.21,0-5.18,2.66-5.18,6.07Z"/>
  <path class="st10" d="M120.66,99.14h3.35v-5.15c0-.56.06-1.08.19-1.53.29-.99.93-1.67,1.97-1.67.73,0,1.1.45,1.1,1.53v6.82h3.35v-7.54c0-3.27-1.57-4.36-3.58-4.36-1.76,0-2.71,1.11-3.17,2.01h-.04s.04-.34.04-.72v-1.02h-3.21v11.62Z"/>
  <path class="st10" d="M137.01,99.14h3.4l.43-7.27c.08-1.22,0-2.71,0-2.71h.04s.46,1.69.77,2.71l1.45,4.67h2.9l1.45-4.67c.31-1.02.77-2.71.77-2.71h.04s-.08,1.49,0,2.71l.43,7.27h3.39l-1.12-16.14h-3.68l-2.01,6.82c-.31,1.04-.7,2.66-.7,2.66h-.04s-.39-1.63-.7-2.66l-2.01-6.82h-3.68l-1.14,16.14Z"/>
  <path class="st10" d="M157.13,91.85c.17-.86.64-1.67,1.61-1.67.79,0,1.32.79,1.32,1.67h-2.92ZM153.63,93.32c0,3.09,1.92,6.09,5.48,6.09,2.65,0,4.26-1.69,4.26-1.69l-1.24-2.73s-1.32,1.17-2.75,1.17c-1.06,0-2.07-.65-2.32-2.08h6.29s.08-.84.08-1.22c0-3.23-1.66-5.62-4.6-5.62-3.21,0-5.19,2.66-5.19,6.07Z"/>
  <path class="st10" d="M167.75,93.32c0-1.78.91-2.78,1.95-2.78,1.32,0,1.95,1.38,1.95,2.78,0,2.01-.95,2.87-1.95,2.87-1.16,0-1.95-1.13-1.95-2.87ZM164.38,93.32c0,3.61,1.78,6.09,4.49,6.09,2.05,0,2.88-1.69,2.88-1.69h.04s-.02.29-.02.66v.77h3.13v-16.14h-3.35v4.65c0,.29.02.52.02.52h-.04s-.6-.93-2.61-.93c-2.65,0-4.55,2.39-4.55,6.07Z"/>
  <path class="st10" d="M177.21,99.14h3.35v-11.62h-3.35v11.62ZM177.25,86.05h3.27v-3.05h-3.27v3.05Z"/>
  <path class="st10" d="M182.12,93.32c0,3.2,1.99,6.09,5.55,6.09,2.79,0,4.27-1.92,4.27-1.92l-1.22-2.73s-1.34,1.4-2.73,1.4c-1.68,0-2.49-1.51-2.49-2.89s.79-2.78,2.38-2.78c1.37,0,2.34,1.13,2.34,1.13l1.41-2.62s-1.26-1.76-3.97-1.76c-3.58,0-5.55,2.96-5.55,6.07Z"/>
  <path class="st10" d="M193.34,99.14h3.35v-11.62h-3.35v11.62ZM193.38,86.05h3.27v-3.05h-3.27v3.05Z"/>
  <path class="st10" d="M198.99,99.14h3.35v-5.15c0-.56.06-1.08.19-1.53.29-.99.93-1.67,1.97-1.67.74,0,1.1.45,1.1,1.53v6.82h3.35v-7.54c0-3.27-1.57-4.36-3.58-4.36-1.76,0-2.71,1.11-3.17,2.01h-.04s.04-.34.04-.72v-1.02h-3.21v11.62Z"/>
  <path class="st10" d="M213.73,95.46c0-.97,1.22-1.33,2.28-1.33h.31v.25c0,.95-.77,2.05-1.64,2.05-.66,0-.95-.43-.95-.97ZM210.37,95.67c0,2.3,1.53,3.75,3.39,3.75,2.09,0,2.82-1.69,2.82-1.69h.04s-.04.34-.04.72v.7h3.06v-7.15c0-2.96-1.68-4.74-4.49-4.74-2.46,0-4.18,1.51-4.18,1.51l1.16,2.75s1.43-1.11,2.69-1.11c.83,0,1.47.32,1.47,1.29v.2h-.13c-1.55,0-5.78.38-5.78,3.77Z"/>
  <g>
    <path class="st10" d="M107.16,40.21s1.49,1.49,3.41,1.49c1.51,0,2.37-.74,2.37-1.65,0-1.3-1.3-1.83-3.09-1.83h-1.16l-.86-1.97,2.18-2.62c.79-.95,1.44-1.55,1.44-1.55v-.05s-.53.12-1.58.12h-3.97v-3.48h10.47v2.53l-3.37,3.88c2.46.53,4.02,2.48,4.02,4.8,0,2.83-2,5.66-6.15,5.66-3.71,0-5.66-2.18-5.66-2.18l1.95-3.13Z"/>
    <path class="st10" d="M120.78,40.21s1.49,1.49,3.41,1.49c1.51,0,2.37-.74,2.37-1.65,0-1.3-1.3-1.83-3.09-1.83h-1.16l-.86-1.97,2.18-2.62c.79-.95,1.44-1.55,1.44-1.55v-.05s-.53.12-1.58.12h-3.97v-3.48h10.47v2.53l-3.37,3.88c2.46.53,4.02,2.48,4.02,4.8,0,2.83-2,5.66-6.15,5.66-3.71,0-5.66-2.18-5.66-2.18l1.95-3.13Z"/>
  </g>
  <g>
    <path class="st10" d="M111.29,108.27h1.61l-.86,3.9h-2.09l1.34-3.9ZM114.2,108.27h1.61l-.84,3.9h-2.09l1.32-3.9Z"/>
    <path class="st10" d="M117.89,108.48h4.54c2.29,0,3.92,1.18,3.92,3.27,0,1.18-.57,2.2-1.54,2.72v.04c1.4.41,2.06,1.7,2.06,2.99,0,2.54-2.04,3.68-4.38,3.68h-4.6v-12.7ZM122.43,113.67c1,0,1.57-.72,1.57-1.63s-.54-1.57-1.61-1.57h-2.2v3.2h2.24ZM122.66,119.2c1.18,0,1.84-.77,1.84-1.84s-.68-1.82-1.84-1.82h-2.47v3.67h2.47Z"/>
    <path class="st10" d="M129.01,112.06h2.18v1.57c0,.34-.04.64-.04.64h.04c.41-1.3,1.5-2.34,2.9-2.34.21,0,.41.04.41.04v2.24s-.23-.04-.54-.04c-.97,0-2.06.55-2.49,1.91-.14.45-.2.95-.2,1.48v3.61h-2.27v-9.12Z"/>
    <path class="st10" d="M140.03,111.85c2.63,0,4.04,1.91,4.04,4.33,0,.27-.05.88-.05.88h-6.29c.14,1.59,1.38,2.41,2.74,2.41,1.47,0,2.63-1,2.63-1l.88,1.63s-1.4,1.31-3.67,1.31c-3.02,0-4.9-2.18-4.9-4.78,0-2.81,1.91-4.77,4.63-4.77ZM141.78,115.49c-.04-1.23-.8-1.9-1.81-1.9-1.16,0-1.97.71-2.18,1.9h3.99Z"/>
    <path class="st10" d="M150.58,115.46h.3v-.12c0-1.2-.75-1.61-1.75-1.61-1.31,0-2.5.88-2.5.88l-.86-1.63s1.41-1.13,3.58-1.13c2.4,0,3.79,1.32,3.79,3.63v5.71h-2.09v-.75c0-.36.04-.64.04-.64h-.04s-.7,1.61-2.77,1.61c-1.63,0-3.09-1.02-3.09-2.84,0-2.9,3.92-3.09,5.4-3.09ZM148.85,119.63c1.2,0,2.06-1.29,2.06-2.4v-.21h-.39c-1.16,0-3.04.16-3.04,1.43,0,.61.45,1.18,1.38,1.18Z"/>
    <path class="st10" d="M155.51,108.48h2.27v6.8h1.13l2.2-3.22h2.52l-2.88,4.08v.04l3.24,5.01h-2.61l-2.41-3.99h-1.18v3.99h-2.27v-12.7Z"/>
    <path class="st10" d="M165.38,108.48h2.25v2.02h-2.25v-2.02ZM165.38,112.06h2.27v9.12h-2.27v-9.12Z"/>
    <path class="st10" d="M170.16,112.06h2.18v1.05c0,.34-.04.63-.04.63h.04c.39-.77,1.4-1.9,3.24-1.9,2.02,0,3.17,1.05,3.17,3.47v5.87h-2.25v-5.4c0-1.11-.29-1.86-1.45-1.86s-2.11.77-2.45,1.86c-.13.38-.16.79-.16,1.22v4.18h-2.27v-9.12Z"/>
    <path class="st10" d="M184.57,123.01c1.4,0,2.58-.59,2.58-2.22v-.54c0-.21.04-.48.04-.48h-.04c-.54.8-1.32,1.23-2.54,1.23-2.61,0-4.1-2.11-4.1-4.61s1.41-4.54,4.04-4.54c1.98,0,2.7,1.16,2.7,1.16h.05s-.02-.11-.02-.25v-.7h2.13v8.57c0,3.13-2.43,4.31-4.81,4.31-1.14,0-2.36-.32-3.24-.79l.68-1.73s1.14.59,2.52.59ZM187.2,116.41c0-2.08-1.02-2.63-2.25-2.63-1.38,0-2.15,1-2.15,2.54s.82,2.77,2.29,2.77c1.09,0,2.11-.63,2.11-2.68Z"/>
    <path class="st10" d="M196.63,108.48h4.54c2.29,0,3.92,1.18,3.92,3.27,0,1.18-.57,2.2-1.54,2.72v.04c1.4.41,2.06,1.7,2.06,2.99,0,2.54-2.04,3.68-4.38,3.68h-4.6v-12.7ZM201.17,113.67c1,0,1.57-.72,1.57-1.63s-.54-1.57-1.61-1.57h-2.2v3.2h2.24ZM201.4,119.2c1.18,0,1.84-.77,1.84-1.84s-.68-1.82-1.84-1.82h-2.47v3.67h2.47Z"/>
    <path class="st10" d="M212.39,115.46h.3v-.12c0-1.2-.75-1.61-1.75-1.61-1.31,0-2.5.88-2.5.88l-.86-1.63s1.41-1.13,3.58-1.13c2.4,0,3.79,1.32,3.79,3.63v5.71h-2.09v-.75c0-.36.04-.64.04-.64h-.04s-.7,1.61-2.77,1.61c-1.63,0-3.09-1.02-3.09-2.84,0-2.9,3.92-3.09,5.4-3.09ZM210.65,119.63c1.2,0,2.06-1.29,2.06-2.4v-.21h-.39c-1.16,0-3.04.16-3.04,1.43,0,.61.45,1.18,1.38,1.18Z"/>
    <path class="st10" d="M217.31,112.06h2.18v1.57c0,.34-.04.64-.04.64h.04c.41-1.3,1.5-2.34,2.9-2.34.21,0,.41.04.41.04v2.24s-.23-.04-.54-.04c-.97,0-2.06.55-2.49,1.91-.14.45-.2.95-.2,1.48v3.61h-2.27v-9.12Z"/>
    <path class="st10" d="M224.34,112.06h2.18v1.57c0,.34-.04.64-.04.64h.04c.41-1.3,1.5-2.34,2.9-2.34.21,0,.41.04.41.04v2.24s-.23-.04-.54-.04c-.97,0-2.06.55-2.49,1.91-.14.45-.2.95-.2,1.48v3.61h-2.27v-9.12Z"/>
    <path class="st10" d="M231.37,108.48h2.25v2.02h-2.25v-2.02ZM231.37,112.06h2.27v9.12h-2.27v-9.12Z"/>
    <path class="st10" d="M240.13,111.85c2.63,0,4.04,1.91,4.04,4.33,0,.27-.05.88-.05.88h-6.29c.14,1.59,1.38,2.41,2.74,2.41,1.47,0,2.63-1,2.63-1l.88,1.63s-1.4,1.31-3.67,1.31c-3.02,0-4.9-2.18-4.9-4.78,0-2.81,1.91-4.77,4.63-4.77ZM241.89,115.49c-.04-1.23-.8-1.9-1.81-1.9-1.16,0-1.97.71-2.18,1.9h3.99Z"/>
    <path class="st10" d="M246.06,112.06h2.18v1.57c0,.34-.04.64-.04.64h.04c.41-1.3,1.5-2.34,2.9-2.34.21,0,.41.04.41.04v2.24s-.23-.04-.54-.04c-.97,0-2.06.55-2.49,1.91-.14.45-.2.95-.2,1.48v3.61h-2.27v-9.12Z"/>
    <path class="st10" d="M253.35,118.46s1,1,2.49,1c.64,0,1.2-.29,1.2-.82,0-1.36-4.44-1.18-4.44-4.11,0-1.7,1.52-2.68,3.49-2.68s3.06,1.04,3.06,1.04l-.84,1.68s-.84-.79-2.24-.79c-.59,0-1.16.25-1.16.82,0,1.29,4.43,1.13,4.43,4.06,0,1.52-1.32,2.74-3.49,2.74-2.27,0-3.54-1.34-3.54-1.34l1.04-1.59Z"/>
    <path class="st10" d="M261.37,112.06h2.25v2.27h-2.25v-2.27ZM261.37,118.91h2.25v2.27h-2.25v-2.27Z"/>
    <path class="st10" d="M273.66,110.47h-4.17v-1.99h10.64v1.99h-4.17v10.71h-2.31v-10.71Z"/>
    <path class="st10" d="M281.46,108.48h2.27v4.4c0,.45-.04.77-.04.77h.04c.45-.88,1.56-1.81,3.15-1.81,2.02,0,3.17,1.05,3.17,3.47v5.87h-2.25v-5.4c0-1.11-.29-1.86-1.45-1.86s-2.13.79-2.47,1.9c-.11.36-.14.75-.14,1.18v4.18h-2.27v-12.7Z"/>
    <path class="st10" d="M296.41,111.85c2.63,0,4.04,1.91,4.04,4.33,0,.27-.05.88-.05.88h-6.29c.14,1.59,1.38,2.41,2.74,2.41,1.47,0,2.63-1,2.63-1l.88,1.63s-1.4,1.31-3.67,1.31c-3.02,0-4.9-2.18-4.9-4.78,0-2.81,1.91-4.77,4.63-4.77ZM298.16,115.49c-.04-1.23-.8-1.9-1.81-1.9-1.16,0-1.97.71-2.18,1.9h3.99Z"/>
    <path class="st10" d="M307.04,108.48h4.33c3.92,0,6.47,2.33,6.47,6.33s-2.56,6.37-6.47,6.37h-4.33v-12.7ZM311.24,119.2c2.58,0,4.22-1.52,4.22-4.38s-1.68-4.35-4.22-4.35h-1.9v8.73h1.9Z"/>
    <path class="st10" d="M324.53,115.46h.3v-.12c0-1.2-.75-1.61-1.75-1.61-1.31,0-2.5.88-2.5.88l-.86-1.63s1.41-1.13,3.58-1.13c2.4,0,3.79,1.32,3.79,3.63v5.71h-2.09v-.75c0-.36.04-.64.04-.64h-.04s-.7,1.61-2.77,1.61c-1.63,0-3.09-1.02-3.09-2.84,0-2.9,3.92-3.09,5.4-3.09ZM322.79,119.63c1.2,0,2.06-1.29,2.06-2.4v-.21h-.39c-1.16,0-3.04.16-3.04,1.43,0,.61.45,1.18,1.38,1.18Z"/>
    <path class="st10" d="M328.38,112.06h2.4l1.59,5.99c.12.48.18.97.18.97h.04s.09-.48.21-.97l1.68-5.97h2.02l1.68,5.97c.13.48.2.97.2.97h.04s.07-.48.2-.97l1.59-5.99h2.36l-2.77,9.12h-2.52l-1.54-5.2c-.14-.48-.23-.98-.23-.98h-.04s-.07.5-.21.98l-1.54,5.2h-2.54l-2.79-9.12Z"/>
    <path class="st10" d="M344.06,112.06h2.18v1.05c0,.34-.04.63-.04.63h.04c.39-.77,1.4-1.9,3.24-1.9,2.02,0,3.17,1.05,3.17,3.47v5.87h-2.25v-5.4c0-1.11-.29-1.86-1.45-1.86s-2.11.77-2.45,1.86c-.13.38-.16.79-.16,1.22v4.18h-2.27v-9.12Z"/>
    <path class="st10" d="M123.5,133.31c2.79,0,5.03,1.99,5.03,4.77s-2.24,4.78-5.01,4.78-5.03-1.97-5.03-4.78,2.24-4.77,5.01-4.77ZM123.52,140.93c1.47,0,2.7-1.14,2.7-2.84s-1.23-2.84-2.7-2.84-2.72,1.16-2.72,2.84,1.23,2.84,2.72,2.84Z"/>
    <path class="st10" d="M130.82,135.48h-1.13v-1.81h1.13v-.41c0-2.99,2.45-3.38,3.72-3.38.46,0,.77.05.77.05v1.93s-.2-.04-.46-.04c-.64,0-1.75.16-1.75,1.48v.36h1.95v1.81h-1.95v7.17h-2.27v-7.17Z"/>
    <path class="st10" d="M145.54,136.92h.3v-.12c0-1.2-.75-1.61-1.75-1.61-1.31,0-2.5.88-2.5.88l-.86-1.63s1.41-1.13,3.58-1.13c2.4,0,3.79,1.32,3.79,3.63v5.71h-2.09v-.75c0-.36.04-.64.04-.64h-.04s-.7,1.61-2.77,1.61c-1.63,0-3.09-1.02-3.09-2.84,0-2.9,3.92-3.09,5.4-3.09ZM143.81,141.09c1.2,0,2.06-1.29,2.06-2.4v-.21h-.39c-1.16,0-3.04.16-3.04,1.43,0,.61.45,1.18,1.38,1.18Z"/>
    <path class="st10" d="M155.17,129.95h2.31l4.81,7.33c.48.73,1.06,1.97,1.06,1.97h.04s-.12-1.22-.12-1.97v-7.33h2.29v12.7h-2.29l-4.81-7.31c-.48-.73-1.06-1.97-1.06-1.97h-.04s.13,1.22.13,1.97v7.31h-2.31v-12.7Z"/>
    <path class="st10" d="M172.39,133.31c2.63,0,4.04,1.91,4.04,4.33,0,.27-.05.88-.05.88h-6.29c.14,1.59,1.38,2.41,2.74,2.41,1.47,0,2.63-1,2.63-1l.88,1.63s-1.4,1.31-3.67,1.31c-3.02,0-4.9-2.18-4.9-4.78,0-2.81,1.91-4.77,4.63-4.77ZM174.14,136.96c-.04-1.23-.8-1.9-1.81-1.9-1.16,0-1.97.72-2.18,1.9h3.99Z"/>
    <path class="st10" d="M177.31,133.53h2.4l1.59,5.99c.12.48.18.97.18.97h.04s.09-.48.21-.97l1.68-5.97h2.02l1.68,5.97c.13.48.2.97.2.97h.04s.07-.48.2-.97l1.59-5.99h2.36l-2.77,9.12h-2.52l-1.54-5.2c-.14-.48-.23-.98-.23-.98h-.04s-.07.5-.21.98l-1.54,5.2h-2.54l-2.79-9.12Z"/>
    <path class="st10" d="M198.35,129.95h2.47l2.49,6.28c.29.75.64,1.86.64,1.86h.04s.34-1.11.63-1.86l2.49-6.28h2.47l1.02,12.7h-2.29l-.54-7.1c-.05-.84-.02-1.97-.02-1.97h-.04s-.38,1.23-.68,1.97l-2.06,4.92h-2.02l-2.04-4.92c-.3-.73-.7-1.99-.7-1.99h-.04s.04,1.14-.02,1.99l-.54,7.1h-2.31l1.04-12.7Z"/>
    <path class="st10" d="M217.04,133.31c2.63,0,4.04,1.91,4.04,4.33,0,.27-.05.88-.05.88h-6.29c.14,1.59,1.38,2.41,2.74,2.41,1.47,0,2.63-1,2.63-1l.88,1.63s-1.4,1.31-3.67,1.31c-3.02,0-4.9-2.18-4.9-4.78,0-2.81,1.91-4.77,4.63-4.77ZM218.79,136.96c-.04-1.23-.8-1.9-1.81-1.9-1.16,0-1.97.72-2.18,1.9h3.99Z"/>
    <path class="st10" d="M226.47,133.31c2,0,2.63,1.16,2.63,1.16h.04s-.02-.23-.02-.52v-4.01h2.27v12.7h-2.15v-.75c0-.34.04-.59.04-.59h-.04s-.77,1.56-2.86,1.56c-2.47,0-4.04-1.95-4.04-4.78s1.72-4.77,4.13-4.77ZM226.9,140.95c1.18,0,2.29-.86,2.29-2.88,0-1.41-.75-2.81-2.27-2.81-1.25,0-2.29,1.02-2.29,2.83s.93,2.86,2.27,2.86Z"/>
    <path class="st10" d="M233.89,129.95h2.25v2.02h-2.25v-2.02ZM233.89,133.53h2.27v9.12h-2.27v-9.12Z"/>
    <path class="st10" d="M242.96,133.31c2.38,0,3.5,1.36,3.5,1.36l-1,1.56s-.95-.98-2.38-.98c-1.68,0-2.77,1.27-2.77,2.83s1.11,2.86,2.84,2.86c1.54,0,2.68-1.16,2.68-1.16l.88,1.61s-1.31,1.48-3.76,1.48c-3.02,0-4.95-2.13-4.95-4.78s1.93-4.77,4.95-4.77Z"/>
    <path class="st10" d="M253.05,136.92h.3v-.12c0-1.2-.75-1.61-1.75-1.61-1.31,0-2.5.88-2.5.88l-.86-1.63s1.41-1.13,3.58-1.13c2.4,0,3.79,1.32,3.79,3.63v5.71h-2.09v-.75c0-.36.04-.64.04-.64h-.04s-.7,1.61-2.77,1.61c-1.63,0-3.09-1.02-3.09-2.84,0-2.9,3.92-3.09,5.4-3.09ZM251.31,141.09c1.2,0,2.06-1.29,2.06-2.4v-.21h-.39c-1.16,0-3.04.16-3.04,1.43,0,.61.45,1.18,1.38,1.18Z"/>
    <path class="st10" d="M257.84,129.95h2.25v9.51c0,1,.34,1.25.93,1.25.18,0,.34-.02.34-.02v1.99s-.34.05-.71.05c-1.25,0-2.81-.32-2.81-2.93v-9.85Z"/>
    <path class="st10" d="M267.75,129.95h7.6v1.99h-5.29v3.33h4.27v1.99h-4.27v3.42h5.58v1.99h-7.89v-12.7Z"/>
    <path class="st10" d="M277.68,133.53h2.18v1.57c0,.34-.04.64-.04.64h.04c.41-1.3,1.5-2.34,2.9-2.34.21,0,.41.04.41.04v2.24s-.23-.04-.54-.04c-.97,0-2.06.55-2.49,1.91-.14.45-.2.95-.2,1.48v3.61h-2.27v-9.12Z"/>
    <path class="st10" d="M289.34,136.92h.3v-.12c0-1.2-.75-1.61-1.75-1.61-1.31,0-2.5.88-2.5.88l-.86-1.63s1.41-1.13,3.58-1.13c2.4,0,3.79,1.32,3.79,3.63v5.71h-2.09v-.75c0-.36.04-.64.04-.64h-.04s-.7,1.61-2.77,1.61c-1.63,0-3.09-1.02-3.09-2.84,0-2.9,3.92-3.09,5.4-3.09ZM287.61,141.09c1.2,0,2.06-1.29,2.06-2.4v-.21h-.39c-1.16,0-3.04.16-3.04,1.43,0,.61.45,1.18,1.38,1.18Z"/>
    <path class="st10" d="M294.64,129.73h2.11l-1.34,3.92h-1.61l.84-3.92ZM297.57,129.73h2.09l-1.32,3.92h-1.61l.84-3.92Z"/>
  </g>
</svg>