<svg xmlns="http://www.w3.org/2000/svg" version="1.1" xmlns:xlink="http://www.w3.org/1999/xlink" xmlns:svgjs="http://svgjs.dev/svgjs" width="500" height="1000" preserveAspectRatio="none" viewBox="0 0 500 1000">
    <g mask="url(&quot;#SvgjsMask1152&quot;)" fill="none">
        <rect width="500" height="1000" x="0" y="0" fill="rgba(220, 220, 222, 1)"></rect>
        <path d="M0,442.902C81.488,426.658,113.021,327.844,175.462,273.024C226.09,228.574,289.364,203.838,331.85,151.551C384.703,86.506,461.031,18.383,449.867,-64.681C438.715,-147.654,339.826,-184.232,278.989,-241.745C224.947,-292.835,182.796,-358.924,112.61,-383.514C40.756,-408.688,-36.954,-395.651,-111.114,-378.418C-188.951,-360.33,-280.246,-347.853,-325.189,-281.778C-369.916,-216.021,-328.775,-127.49,-335.679,-48.263C-342.073,25.116,-383.477,95.242,-364.237,166.342C-343.63,242.492,-289.855,305.552,-227.025,353.258C-160.887,403.476,-81.441,459.137,0,442.902" fill="#c8c8cb"></path>
        <path d="M500 1369.356C591.328 1368.925 679.2139999999999 1443.7069999999999 764.9780000000001 1412.314 853.525 1379.902 930.02 1297.4 948.942 1205.025 967.495 1114.452 872.765 1039.808 860.04 948.234 847.217 855.9590000000001 922.4680000000001 755.149 875.265 674.831 828.37 595.037 722.314 564.75 630.088 556.96 545.422 549.809 471.041 601.524 392.55 634.06 322.91499999999996 662.925 252.281 686.374 196.245 736.7950000000001 134.67700000000002 792.194 76.94400000000002 855.953 56.697 936.263 35.40699999999998 1020.712 51.56400000000002 1109.318 81.73200000000003 1191.017 113.59500000000003 1277.306 148.79500000000002 1378.747 233.409 1414.824 318.047 1450.911 407.991 1369.79 500 1369.356" fill="#f1f1f1"></path>
    </g>
    <defs>
        <mask id="SvgjsMask1152">
            <rect width="500" height="1000" fill="#ffffff"></rect>
        </mask>
    </defs>
</svg>