<svg width="101" height="100" xmlns="http://www.w3.org/2000/svg" xmlns:xlink="http://www.w3.org/1999/xlink" xml:space="preserve" overflow="hidden"><defs><clipPath id="clip0"><rect x="493" y="298" width="101" height="100"/></clipPath></defs><g clip-path="url(#clip0)" transform="translate(-493 -298)"><path d="M59.8084 39.117C74.3723 39.117 86.1701 50.9148 86.1701 65.4786 86.1701 80.0425 74.3723 91.8403 59.8084 91.8403 45.2446 91.8403 33.4468 80.0425 33.4468 65.4786 33.4468 50.9148 45.2446 39.117 59.8084 39.117M59.8084 31.3617C78.6488 31.3617 93.9254 46.6382 93.9254 65.4786 93.9254 84.3191 78.6488 99.5956 59.8084 99.5956 40.968 99.5956 25.6915 84.3191 25.6915 65.4786 25.6915 46.6382 40.968 31.3617 59.8084 31.3617Z" fill="#045692" fill-rule="evenodd" transform="matrix(1 0 0 1.00082 481.16 279.136)"/><path d="M109.532 115.202C107.223 117.511 103.457 117.511 101.149 115.202 93.2765 107.33 87.4999 97.3616 82.7871 92.6595 80.8084 93.1807 78.6063 92.6701 77.0637 91.1276L76.585 90.6488C78.1808 89.5318 79.7127 88.2552 81.1382 86.8191 82.5637 85.3935 83.8403 83.8616 84.968 82.2659L85.4467 82.7446C86.9893 84.2871 87.4999 86.4893 86.9786 88.468 91.6914 93.1807 101.659 98.9573 109.521 106.83 111.83 109.138 111.83 112.904 109.521 115.213" fill="#045692" fill-rule="evenodd" transform="matrix(1 0 0 1.00082 481.16 279.136)"/><path d="M57.734 79.585C55.9574 78.7871 54.7233 77.0106 54.7233 74.9467 54.7233 72.1382 56.9999 69.8616 59.8084 69.8616 62.617 69.8616 64.8935 72.1382 64.8935 74.9467 64.8935 77.0106 63.6595 78.7978 61.8829 79.585 64.7872 80.4786 66.9255 83.1914 66.9255 86.3829L66.9255 88.6807C64.6808 89.3722 62.2872 89.7446 59.8084 89.7446 57.3297 89.7446 54.9467 89.3722 52.6914 88.6807L52.6914 86.3829C52.6914 83.1914 54.8191 80.4786 57.734 79.585" fill="#495AA0" fill-rule="evenodd" transform="matrix(1 0 0 1.00082 481.16 279.136)"/><path d="M44.7446 78.1488C44.1808 76.6595 44.4893 74.9254 45.6914 73.7233 47.3191 72.0957 49.9468 72.0957 51.5744 73.7233 53.2021 75.351 53.2021 77.9786 51.5744 79.6063 50.3829 80.7978 48.6382 81.1169 47.1489 80.5531 48.0744 82.2978 48.0531 84.4148 47.0851 86.1488 43.8617 84.1595 41.1489 81.4361 39.1595 78.2233 40.8829 77.2552 43.0106 77.234 44.7553 78.1595" fill="#DAAC50" fill-rule="evenodd" transform="matrix(1 0 0 1.00082 481.16 279.136)"/><path d="M47.1382 50.4148C48.6276 49.851 50.3616 50.1595 51.5638 51.3616 53.1914 52.9893 53.1914 55.617 51.5638 57.2446 49.9361 58.8723 47.3085 58.8723 45.6808 57.2446 44.4893 56.0531 44.1702 54.3084 44.734 52.8191 42.9893 53.7446 40.8723 53.7233 39.1383 52.7553 41.1276 49.5319 43.851 46.8191 47.0638 44.8297 48.0319 46.5531 48.0531 48.6808 47.1276 50.4255" fill="#99763D" fill-rule="evenodd" transform="matrix(1 0 0 1.00082 481.16 279.136)"/><path d="M74.8829 52.8084C75.4467 54.2978 75.1382 56.0318 73.9361 57.234 72.3084 58.8616 69.6808 58.8616 68.0531 57.234 66.4255 55.6063 66.4255 52.9787 68.0531 51.351 69.2446 50.1595 70.9893 49.8404 72.4786 50.4042 71.5531 48.6595 71.5744 46.5425 72.5425 44.8085 75.7659 46.7978 78.4786 49.5212 80.468 52.734 78.7446 53.7021 76.6169 53.7233 74.8723 52.7978" fill="#36749A" fill-rule="evenodd" transform="matrix(1 0 0 1.00082 481.16 279.136)"/><path d="M72.4786 80.5531C70.9893 81.1169 69.2552 80.8084 68.0531 79.6063 66.4255 77.9786 66.4255 75.351 68.0531 73.7233 69.6808 72.0957 72.3084 72.0957 73.9361 73.7233 75.1276 74.9148 75.4467 76.6595 74.8829 78.1488 76.6276 77.2233 78.7446 77.2446 80.4786 78.2127 78.4893 81.4361 75.7659 84.1488 72.5531 86.1382 71.585 84.4148 71.5637 82.2871 72.4893 80.5425" fill="#3F8ACA" fill-rule="evenodd" transform="matrix(1 0 0 1.00082 481.16 279.136)"/><path d="M73.9254 67.5531C73.1276 69.3297 71.351 70.5638 69.2872 70.5638 66.4787 70.5638 64.2021 68.2872 64.2021 65.4786 64.2021 62.6701 66.4787 60.3936 69.2872 60.3936 71.351 60.3936 73.1382 61.6276 73.9254 63.4042 74.8191 60.4999 77.5318 58.3616 80.7233 58.3616L83.0212 58.3616C83.7127 60.6063 84.085 62.9999 84.085 65.4786 84.085 67.9574 83.7127 70.3403 83.0212 72.5957L80.7233 72.5957C77.5318 72.5957 74.8191 70.468 73.9254 67.5531" fill="#397AAB" fill-rule="evenodd" transform="matrix(1 0 0 1.00082 481.16 279.136)"/><path d="M61.8829 51.3723C63.6595 52.1702 64.8935 53.9467 64.8935 56.0106 64.8935 58.8191 62.617 61.0957 59.8084 61.0957 56.9999 61.0957 54.7233 58.8191 54.7233 56.0106 54.7233 53.9467 55.9574 52.1595 57.734 51.3723 54.8297 50.4787 52.6914 47.7659 52.6914 44.5744L52.6914 42.2766C54.9361 41.5851 57.3297 41.2127 59.8084 41.2127 62.2872 41.2127 64.6701 41.5851 66.9255 42.2766L66.9255 44.5744C66.9255 47.7659 64.7978 50.4787 61.8829 51.3723" fill="#405189" fill-rule="evenodd" transform="matrix(1 0 0 1.00082 481.16 279.136)"/><path d="M45.7021 63.4042C46.4999 61.6276 48.2765 60.3936 50.3404 60.3936 53.1489 60.3936 55.4255 62.6701 55.4255 65.4786 55.4255 68.2872 53.1489 70.5638 50.3404 70.5638 48.2765 70.5638 46.4893 69.3297 45.7021 67.5531 44.8085 70.4574 42.0957 72.5957 38.9042 72.5957L36.6063 72.5957C35.9149 70.351 35.5425 67.9574 35.5425 65.4786 35.5425 62.9999 35.9149 60.617 36.6063 58.3616L38.9042 58.3616C42.0957 58.3616 44.8085 60.4893 45.7021 63.4042" fill="#AF8842" fill-rule="evenodd" transform="matrix(1 0 0 1.00082 481.16 279.136)"/><path d="M59.8084 23.383C83.0531 23.383 101.904 42.2234 101.904 65.4786 101.904 75.085 98.6807 83.9361 93.2659 91.0212 93.0637 90.8722 92.8616 90.7127 92.6701 90.5637 91.9148 89.9786 91.1382 89.3722 90.3935 88.7446 95.3084 82.2871 98.2339 74.234 98.2339 65.4893 98.2339 44.2765 81.0318 27.0744 59.8191 27.0744 38.6063 27.0744 21.3936 44.2659 21.3936 65.4786 21.3936 86.6914 38.5957 103.894 59.8084 103.894 68.5531 103.894 76.6063 100.968 83.0637 96.0531 83.6914 96.7978 84.2978 97.5744 84.8829 98.3297 85.0318 98.5318 85.1914 98.7339 85.3403 98.9254 78.2552 104.34 69.4042 107.564 59.7978 107.564 36.5532 107.564 17.7021 88.7233 17.7021 65.468 17.7021 42.2127 36.5638 23.383 59.8084 23.383" fill="#14385B" fill-rule="evenodd" transform="matrix(1 0 0 1.00082 481.16 279.136)"/><path d="M144.021 35.7234C143.404 35.7234 142.893 35.1702 142.893 34.4468 142.893 33.7766 143.404 33.2021 144.021 33.2021 144.638 33.2021 145.149 33.7766 145.149 34.4468 145.149 35.1702 144.638 35.7234 144.021 35.7234ZM144.021 38.6063C146.074 38.6063 147.745 36.7766 147.745 34.468 147.745 32.1595 146.074 30.3191 144.021 30.3191 141.968 30.3191 140.298 32.2234 140.298 34.468 140.298 36.7127 141.947 38.6063 144.021 38.6063Z" fill="#14385B" transform="matrix(1 0 0 1.00082 481.16 279.136)"/><path d="M153.393 39.2234C153.393 44.3191 156.5 48.1276 161.106 48.1276 164.957 48.1276 167.032 45.2446 167.032 45.2446L165.181 42.1808C165.181 42.1808 163.489 44.2872 161.266 44.2872 158.553 44.2872 157.106 41.6595 157.106 39.1276 157.106 36.5957 158.447 34.2234 161.266 34.2234 163.298 34.2234 164.947 35.9787 164.947 35.9787L166.617 32.8085C166.617 32.8085 164.744 30.3829 161.096 30.3829 156.67 30.3829 153.383 34.2234 153.383 39.2127Z" fill="#14385B" transform="matrix(1 0 0 1.00082 481.16 279.136)"/><path d="M171.436 41.7021C171.436 39.8297 172.553 38.6489 173.84 38.6489 175.127 38.6489 176.244 39.8297 176.244 41.7021 176.244 43.5744 175.127 44.6914 173.84 44.6914 172.553 44.6914 171.436 43.5638 171.436 41.7021ZM167.84 41.7021C167.84 45.5638 170.521 48.1382 173.851 48.1382 177.181 48.1382 179.862 45.5638 179.862 41.7021 179.862 37.8404 177.181 35.2021 173.83 35.2021 170.479 35.2021 167.84 37.8085 167.84 41.7021Z" fill="#14385B" transform="matrix(1 0 0 1.00082 481.16 279.136)"/><path d="M181.521 47.8404 185.085 47.8404 185.085 42.3723C185.085 41.7659 185.149 41.2127 185.287 40.7446 185.596 39.6914 186.276 38.9574 187.383 38.9574 188.159 38.9574 188.553 39.4361 188.553 40.5851L188.553 47.8404 192.117 47.8404 192.117 39.8191C192.117 36.3404 190.447 35.1915 188.308 35.1915 186.436 35.1915 185.425 36.3723 184.936 37.3297L184.893 37.3297C184.893 37.3297 184.936 36.968 184.936 36.5638L184.936 35.4893 181.521 35.4893 181.521 47.851Z" fill="#14385B" transform="matrix(1 0 0 1.00082 481.16 279.136)"/><path d="M199.351 44.0319C197.925 44.0319 197.308 42.6595 197.308 41.117 197.308 39.7127 197.947 38.6489 199.202 38.6489 200.276 38.6489 201.255 39.1383 201.255 41.3191 201.255 43.5 200.266 44.0319 199.34 44.0319ZM195.744 48.6382 194.734 51.7872C195.766 52.4148 197.33 52.8936 198.744 52.8936 201.649 52.8936 204.734 51.234 204.734 46.7234L204.734 35.4893 201.404 35.4893 201.404 36.117C201.404 36.2553 201.425 36.3936 201.425 36.3936L201.361 36.3936C201.361 36.3936 200.415 35.2021 198.479 35.2021 195.266 35.2021 193.723 38.1276 193.723 41.2765 193.723 44.4255 195.308 47.4893 198.5 47.4893 199.734 47.4893 200.542 47.0638 201.159 46.1914L201.202 46.1914C201.202 46.1914 201.181 46.4999 201.181 46.6382L201.181 47.0531C201.181 48.8723 200.01 49.4255 198.734 49.4255 197.064 49.4255 195.755 48.6382 195.755 48.6382Z" fill="#14385B" transform="matrix(1 0 0 1.00082 481.16 279.136)"/><path d="M207.191 47.8404 210.755 47.8404 210.755 43.1595C210.755 42.4787 210.819 41.9255 210.936 41.4787 211.447 39.6383 212.83 39.3191 213.67 39.3191 214.106 39.3191 214.393 39.3936 214.393 39.3936L214.393 35.2978C214.393 35.2978 214.191 35.2553 213.978 35.2553 212.393 35.2553 211.053 36.6489 210.606 38.3191L210.564 38.3191C210.564 38.3191 210.606 37.968 210.606 37.5532L210.606 35.468 207.191 35.468 207.191 47.8297Z" fill="#14385B" transform="matrix(1 0 0 1.00082 481.16 279.136)"/><path d="M218.819 40.0957C219 39.1808 219.5 38.3297 220.532 38.3297 221.372 38.3297 221.936 39.1702 221.936 40.0957L218.83 40.0957ZM215.085 41.6489C215.085 44.9468 217.127 48.1382 220.915 48.1382 223.734 48.1382 225.447 46.3404 225.447 46.3404L224.127 43.4255C224.127 43.4255 222.723 44.6808 221.202 44.6808 220.074 44.6808 219 43.9787 218.734 42.468L225.425 42.468C225.425 42.468 225.51 41.5744 225.51 41.1595 225.51 37.734 223.744 35.1915 220.617 35.1915 217.202 35.1915 215.096 38.0319 215.096 41.6382Z" fill="#14385B" transform="matrix(1 0 0 1.00082 481.16 279.136)"/><path d="M226.425 46.3191C226.425 46.3191 228.01 48.1382 230.659 48.1382 233.308 48.1382 235 46.3404 235 44.2234 235 40.2446 230.042 40.0957 230.042 39.1702 230.042 38.734 230.553 38.5638 231.095 38.5638 232.574 38.5638 233.606 39.5638 233.606 39.5638L234.819 36.617C234.819 36.617 233.564 35.2021 231.095 35.2021 228.627 35.2021 226.734 36.6489 226.734 38.968 226.734 43.0106 231.691 43.117 231.691 44.2021 231.691 44.617 231.181 44.7765 230.638 44.7765 229.117 44.7765 227.947 43.5319 227.947 43.5319L226.425 46.3191Z" fill="#14385B" transform="matrix(1 0 0 1.00082 481.16 279.136)"/><path d="M239.585 41.7021C239.585 39.8297 240.702 38.6489 241.989 38.6489 243.276 38.6489 244.393 39.8297 244.393 41.7021 244.393 43.5744 243.276 44.6914 241.989 44.6914 240.702 44.6914 239.585 43.5638 239.585 41.7021ZM235.978 41.7021C235.978 45.5638 238.649 48.1382 241.989 48.1382 245.33 48.1382 248 45.5638 248 41.7021 248 37.8404 245.33 35.2021 241.968 35.2021 238.606 35.2021 235.978 37.8085 235.978 41.7021Z" fill="#14385B" transform="matrix(1 0 0 1.00082 481.16 279.136)"/><path d="M254.606 47.8404 258.212 47.8404 258.212 39.851C258.212 38.7766 258.053 36.9255 258.053 36.9255L258.095 36.9255C258.095 36.9255 258.755 38.7234 259.329 39.851L263.425 47.8404 267.042 47.8404 267.042 30.6702 263.436 30.6702 263.436 38.6914C263.436 39.7659 263.595 41.6276 263.595 41.6276L263.553 41.6276C263.553 41.6276 262.893 39.8191 262.319 38.6914L258.244 30.6702 254.606 30.6702 254.606 47.8404Z" fill="#14385B" transform="matrix(1 0 0 1.00082 481.16 279.136)"/><path d="M272.67 43.9255C272.67 42.8936 273.968 42.5106 275.095 42.5106L275.425 42.5106 275.425 42.7765C275.425 43.7978 274.606 44.968 273.681 44.968 272.978 44.968 272.67 44.5 272.67 43.9255ZM269.095 44.1382C269.095 46.5957 270.723 48.1276 272.702 48.1276 274.925 48.1276 275.702 46.3297 275.702 46.3297L275.744 46.3297C275.744 46.3297 275.702 46.6808 275.702 47.0957L275.702 47.8404 278.957 47.8404 278.957 40.234C278.957 37.0851 277.17 35.1915 274.181 35.1915 271.564 35.1915 269.734 36.7978 269.734 36.7978L270.968 39.7234C270.968 39.7234 272.489 38.5532 273.829 38.5532 274.712 38.5532 275.393 38.8829 275.393 39.9255L275.393 40.1383 275.244 40.1383C273.595 40.1383 269.095 40.5425 269.095 44.1382Z" fill="#14385B" transform="matrix(1 0 0 1.00082 481.16 279.136)"/><path d="M280.457 41.6489C280.457 45.0638 282.574 48.1382 286.361 48.1382 289.329 48.1382 290.904 46.0957 290.904 46.0957L289.606 43.1914C289.606 43.1914 288.181 44.6808 286.702 44.6808 284.915 44.6808 284.042 43.0638 284.042 41.6063 284.042 40.1489 284.883 38.6489 286.574 38.6489 288.032 38.6489 289.064 39.851 289.064 39.851L290.564 37.0638C290.564 37.0638 289.223 35.1915 286.34 35.1915 282.532 35.1915 280.436 38.3297 280.436 41.6382Z" fill="#14385B" transform="matrix(1 0 0 1.00082 481.16 279.136)"/><path d="M292.393 47.8404 295.957 47.8404 295.957 35.4787 292.393 35.4787 292.393 47.8404ZM292.436 33.9149 295.915 33.9149 295.915 30.6702 292.436 30.6702 292.436 33.9149Z" fill="#14385B" transform="matrix(1 0 0 1.00082 481.16 279.136)"/><path d="M301.223 41.7021C301.223 39.8297 302.34 38.6489 303.627 38.6489 304.915 38.6489 306.032 39.8297 306.032 41.7021 306.032 43.5744 304.915 44.6914 303.627 44.6914 302.34 44.6914 301.223 43.5638 301.223 41.7021ZM297.617 41.7021C297.617 45.5638 300.287 48.1382 303.627 48.1382 306.968 48.1382 309.638 45.5638 309.638 41.7021 309.638 37.8404 306.957 35.2021 303.606 35.2021 300.255 35.2021 297.617 37.8085 297.617 41.7021Z" fill="#14385B" transform="matrix(1 0 0 1.00082 481.16 279.136)"/><path d="M311.298 47.8404 314.861 47.8404 314.861 42.3723C314.861 41.7659 314.925 41.2127 315.063 40.7446 315.372 39.6914 316.053 38.9574 317.159 38.9574 317.946 38.9574 318.329 39.4361 318.329 40.5851L318.329 47.8404 321.893 47.8404 321.893 39.8191C321.893 36.3404 320.223 35.1915 318.085 35.1915 316.212 35.1915 315.202 36.3723 314.712 37.3297L314.67 37.3297C314.67 37.3297 314.712 36.968 314.712 36.5638L314.712 35.4893 311.298 35.4893 311.298 47.851Z" fill="#14385B" transform="matrix(1 0 0 1.00082 481.16 279.136)"/><path d="M326.989 43.9255C326.989 42.8936 328.287 42.5106 329.415 42.5106L329.744 42.5106 329.744 42.7765C329.744 43.7978 328.925 44.968 328 44.968 327.298 44.968 326.989 44.5 326.989 43.9255ZM323.404 44.1382C323.404 46.5957 325.032 48.1276 327.01 48.1276 329.234 48.1276 330.021 46.3297 330.021 46.3297L330.063 46.3297C330.063 46.3297 330.021 46.6808 330.021 47.0957L330.021 47.8404 333.276 47.8404 333.276 40.234C333.276 37.0851 331.489 35.1915 328.5 35.1915 325.883 35.1915 324.053 36.7978 324.053 36.7978L325.287 39.7234C325.287 39.7234 326.808 38.5532 328.149 38.5532 329.032 38.5532 329.712 38.8829 329.712 39.9255L329.712 40.1383 329.563 40.1383C327.915 40.1383 323.415 40.5425 323.415 44.1382Z" fill="#14385B" transform="matrix(1 0 0 1.00082 481.16 279.136)"/><path d="M335.404 43.2872C335.404 47.4361 337.425 47.968 339.319 47.968 339.893 47.968 340.393 47.8936 340.393 47.8936L340.393 44.2872C340.393 44.2872 340.191 44.3085 339.957 44.3085 339.159 44.3085 338.968 43.8936 338.968 42.7234L338.968 30.6595 335.404 30.6595 335.404 43.2659Z" fill="#14385B" transform="matrix(1 0 0 1.00082 481.16 279.136)"/><path d="M349.393 41.6489C349.393 39.7553 350.361 38.7021 351.468 38.7021 352.872 38.7021 353.542 40.1702 353.542 41.6489 353.542 43.7978 352.532 44.7021 351.468 44.7021 350.234 44.7021 349.393 43.5106 349.393 41.6489ZM345.819 41.6489C345.819 45.5 347.712 48.1382 350.595 48.1382 352.776 48.1382 353.659 46.3404 353.659 46.3404L353.702 46.3404C353.702 46.3404 353.68 46.6382 353.68 47.0319L353.68 47.851 357.01 47.851 357.01 30.6808 353.446 30.6808 353.446 35.6276C353.446 35.9361 353.468 36.1808 353.468 36.1808L353.425 36.1808C353.425 36.1808 352.787 35.2021 350.649 35.2021 347.829 35.2021 345.808 37.7446 345.808 41.6489Z" fill="#14385B" transform="matrix(1 0 0 1.00082 481.16 279.136)"/><path d="M362.425 40.0957C362.606 39.1808 363.106 38.3297 364.138 38.3297 364.978 38.3297 365.542 39.1702 365.542 40.0957L362.436 40.0957ZM358.702 41.6489C358.702 44.9468 360.744 48.1382 364.521 48.1382 367.34 48.1382 369.053 46.3404 369.053 46.3404L367.734 43.4255C367.734 43.4255 366.329 44.6808 364.808 44.6808 363.68 44.6808 362.606 43.9787 362.34 42.468L369.032 42.468C369.032 42.468 369.117 41.5744 369.117 41.1595 369.117 37.734 367.351 35.1915 364.212 35.1915 360.797 35.1915 358.702 38.0319 358.702 41.6382Z" fill="#14385B" transform="matrix(1 0 0 1.00082 481.16 279.136)"/><path d="M117.372 59.4893 120.979 59.4893 120.979 76.6595 117.372 76.6595Z" fill="#14385B" transform="matrix(1 0 0 1.00082 481.16 279.136)"/><path d="M123.84 76.6595 127.404 76.6595 127.404 71.1914C127.404 70.585 127.468 70.0425 127.606 69.5638 127.915 68.5106 128.596 67.7872 129.702 67.7872 130.479 67.7872 130.872 68.2659 130.872 69.4148L130.872 76.6701 134.436 76.6701 134.436 68.6489C134.436 65.1701 132.766 64.0212 130.628 64.0212 128.755 64.0212 127.745 65.2021 127.255 66.1489L127.213 66.1489C127.213 66.1489 127.255 65.7872 127.255 65.3829L127.255 64.3084 123.84 64.3084 123.84 76.6701Z" fill="#14385B" transform="matrix(1 0 0 1.00082 481.16 279.136)"/><path d="M139.042 76.6595 143.383 76.6595 146.989 64.2978 143.223 64.2978 141.596 70.8723C141.393 71.6914 141.202 73.0106 141.202 73.0106L141.159 73.0106C141.159 73.0106 140.979 71.6595 140.766 70.8723L139.117 64.2978 135.372 64.2978 139.032 76.6595Z" fill="#14385B" transform="matrix(1 0 0 1.00082 481.16 279.136)"/><path d="M151.085 68.9042C151.266 67.9893 151.766 67.1169 152.798 67.1169 153.638 67.1169 154.202 67.9574 154.202 68.9042L151.096 68.9042ZM147.362 70.4574C147.362 73.7552 149.404 76.9467 153.191 76.9467 156.01 76.9467 157.723 75.1488 157.723 75.1488L156.404 72.2446C156.404 72.2446 155 73.4893 153.479 73.4893 152.351 73.4893 151.276 72.7978 151.01 71.2765L157.702 71.2765C157.702 71.2765 157.787 70.3935 157.787 69.9786 157.787 66.5531 156.021 64.0106 152.893 64.0106 149.479 64.0106 147.372 66.851 147.372 70.4574Z" fill="#14385B" transform="matrix(1 0 0 1.00082 481.16 279.136)"/><path d="M158.702 75.1169C158.702 75.1169 160.287 76.9361 162.947 76.9361 165.606 76.9361 167.287 75.1382 167.287 73.0212 167.287 69.0425 162.33 68.8935 162.33 67.9467 162.33 67.5212 162.84 67.3616 163.383 67.3616 164.862 67.3616 165.893 68.3616 165.893 68.3616L167.106 65.4148C167.106 65.4148 165.851 63.9999 163.383 63.9999 160.915 63.9999 159.021 65.4467 159.021 67.7659 159.021 71.8084 163.979 71.9148 163.979 72.9999 163.979 73.4042 163.468 73.5744 162.925 73.5744 161.404 73.5744 160.234 72.3297 160.234 72.3297L158.713 75.1063Z" fill="#14385B" transform="matrix(1 0 0 1.00082 481.16 279.136)"/><path d="M169.564 72.1063C169.564 76.2552 172.83 76.7871 174.521 76.7871 175.096 76.7871 175.489 76.7127 175.489 76.7127L175.489 73.1063C175.489 73.1063 175.308 73.1276 175.021 73.1276 174.34 73.1276 173.127 72.9361 173.127 71.5531L173.127 67.7552 175.351 67.7552 175.351 64.5212 173.127 64.5212 173.127 60.968 169.67 60.968 169.67 64.5212 168.213 64.5212 168.213 67.7552 169.574 67.7552 169.574 72.1063Z" fill="#14385B" transform="matrix(1 0 0 1.00082 481.16 279.136)"/><path d="M177.383 76.6595 180.947 76.6595 180.947 64.2978 177.383 64.2978 177.383 76.6595ZM177.425 62.7233 180.904 62.7233 180.904 59.4787 177.425 59.4787 177.425 62.7233Z" fill="#14385B" transform="matrix(1 0 0 1.00082 481.16 279.136)"/><path d="M188.319 72.8403C186.893 72.8403 186.276 71.4786 186.276 69.9255 186.276 68.5106 186.915 67.4574 188.17 67.4574 189.244 67.4574 190.223 67.9467 190.223 70.1276 190.223 72.3084 189.234 72.8403 188.308 72.8403ZM184.713 77.4467 183.702 80.5957C184.734 81.2233 186.298 81.702 187.713 81.702 190.617 81.702 193.702 80.0425 193.702 75.5318L193.702 64.2978 190.372 64.2978 190.372 64.9148C190.372 65.0638 190.393 65.2021 190.393 65.2021L190.33 65.2021C190.33 65.2021 189.383 64.0106 187.447 64.0106 184.234 64.0106 182.691 66.9361 182.691 70.085 182.691 73.234 184.276 76.2978 187.468 76.2978 188.702 76.2978 189.51 75.8616 190.127 74.9999L190.17 74.9999C190.17 74.9999 190.149 75.3084 190.149 75.4574L190.149 75.8616C190.149 77.6808 188.979 78.234 187.702 78.234 186.032 78.234 184.723 77.4467 184.723 77.4467Z" fill="#14385B" transform="matrix(1 0 0 1.00082 481.16 279.136)"/><path d="M198.936 72.7446C198.936 71.7127 200.234 71.3191 201.361 71.3191L201.691 71.3191 201.691 71.585C201.691 72.6063 200.872 73.7765 199.947 73.7765 199.244 73.7765 198.936 73.3191 198.936 72.7446ZM195.351 72.9574C195.351 75.4042 196.979 76.9467 198.957 76.9467 201.181 76.9467 201.968 75.1488 201.968 75.1488L202.01 75.1488C202.01 75.1488 201.968 75.5106 201.968 75.9148L201.968 76.6595 205.223 76.6595 205.223 69.0531C205.223 65.9042 203.436 64.0106 200.447 64.0106 197.83 64.0106 196 65.617 196 65.617L197.234 68.5425C197.234 68.5425 198.755 67.3723 200.096 67.3723 200.979 67.3723 201.659 67.702 201.659 68.7446L201.659 68.9574 201.521 68.9574C199.872 68.9574 195.372 69.3616 195.372 72.968Z" fill="#14385B" transform="matrix(1 0 0 1.00082 481.16 279.136)"/><path d="M206.713 70.4574C206.713 73.8723 208.83 76.9467 212.617 76.9467 215.585 76.9467 217.17 74.9042 217.17 74.9042L215.872 71.9999C215.872 71.9999 214.447 73.4893 212.968 73.4893 211.181 73.4893 210.308 71.8723 210.308 70.4254 210.308 68.9786 211.149 67.468 212.84 67.468 214.298 67.468 215.33 68.6701 215.33 68.6701L216.83 65.8829C216.83 65.8829 215.489 64.0106 212.606 64.0106 208.798 64.0106 206.702 67.1489 206.702 70.4574Z" fill="#14385B" transform="matrix(1 0 0 1.00082 481.16 279.136)"/><path d="M218.649 76.6595 222.213 76.6595 222.213 64.2978 218.649 64.2978 218.649 76.6595ZM218.691 62.7233 222.17 62.7233 222.17 59.4787 218.691 59.4787 218.691 62.7233Z" fill="#14385B" transform="matrix(1 0 0 1.00082 481.16 279.136)"/><path d="M228.404 63.0957 231.159 63.0957 233.585 59.4893 230.064 59.4893 228.393 63.0957ZM227.478 70.5106C227.478 68.6382 228.585 67.4574 229.883 67.4574 231.181 67.4574 232.287 68.6382 232.287 70.5106 232.287 72.3829 231.181 73.4893 229.883 73.4893 228.585 73.4893 227.478 72.3616 227.478 70.5106ZM223.883 70.5106C223.883 74.3829 226.564 76.9467 229.893 76.9467 233.223 76.9467 235.904 74.3829 235.904 70.5106 235.904 66.6382 233.223 64.0106 229.872 64.0106 226.521 64.0106 223.883 66.6169 223.883 70.5106Z" fill="#14385B" transform="matrix(1 0 0 1.00082 481.16 279.136)"/><path d="M237.564 76.6595 241.127 76.6595 241.127 71.1914C241.127 70.585 241.191 70.0425 241.33 69.5638 241.638 68.5106 242.319 67.7872 243.425 67.7872 244.202 67.7872 244.595 68.2659 244.595 69.4148L244.595 76.6701 248.159 76.6701 248.159 68.6489C248.159 65.1701 246.489 64.0212 244.351 64.0212 242.478 64.0212 241.468 65.2021 240.978 66.1489L240.936 66.1489C240.936 66.1489 240.978 65.7872 240.978 65.3829L240.978 64.3084 237.564 64.3084 237.564 76.6701Z" fill="#14385B" transform="matrix(1 0 0 1.00082 481.16 279.136)"/><path d="M257.957 68.9042C258.138 67.9893 258.638 67.1169 259.67 67.1169 260.51 67.1169 261.074 67.9574 261.074 68.9042L257.968 68.9042ZM254.234 70.4574C254.234 73.7552 256.276 76.9467 260.064 76.9467 262.883 76.9467 264.595 75.1488 264.595 75.1488L263.276 72.2446C263.276 72.2446 261.872 73.4893 260.351 73.4893 259.223 73.4893 258.149 72.7978 257.883 71.2765L264.574 71.2765C264.574 71.2765 264.659 70.3935 264.659 69.9786 264.659 66.5531 262.893 64.0106 259.766 64.0106 256.351 64.0106 254.244 66.851 254.244 70.4574Z" fill="#14385B" transform="matrix(1 0 0 1.00082 481.16 279.136)"/><path d="M271.34 59.4893 274.947 59.4893 274.947 76.6595 271.34 76.6595Z" fill="#14385B" transform="matrix(1 0 0 1.00082 481.16 279.136)"/><path d="M277.798 76.6595 281.361 76.6595 281.361 71.1914C281.361 70.585 281.425 70.0425 281.564 69.5638 281.872 68.5106 282.553 67.7872 283.659 67.7872 284.436 67.7872 284.829 68.2659 284.829 69.4148L284.829 76.6701 288.393 76.6701 288.393 68.6489C288.393 65.1701 286.723 64.0212 284.585 64.0212 282.712 64.0212 281.702 65.2021 281.212 66.1489L281.17 66.1489C281.17 66.1489 281.212 65.7872 281.212 65.3829L281.212 64.3084 277.798 64.3084 277.798 76.6701Z" fill="#14385B" transform="matrix(1 0 0 1.00082 481.16 279.136)"/><path d="M290.702 76.6595 294.266 76.6595 294.266 71.1914C294.266 70.585 294.329 70.0425 294.468 69.5638 294.776 68.5106 295.457 67.7872 296.563 67.7872 297.34 67.7872 297.734 68.2659 297.734 69.4148L297.734 76.6701 301.298 76.6701 301.298 68.6489C301.298 65.1701 299.627 64.0212 297.489 64.0212 295.617 64.0212 294.606 65.2021 294.117 66.1489L294.074 66.1489C294.074 66.1489 294.117 65.7872 294.117 65.3829L294.117 64.3084 290.702 64.3084 290.702 76.6701Z" fill="#14385B" transform="matrix(1 0 0 1.00082 481.16 279.136)"/><path d="M306.425 70.5106C306.425 68.6382 307.532 67.4574 308.829 67.4574 310.127 67.4574 311.234 68.6382 311.234 70.5106 311.234 72.3829 310.117 73.4893 308.829 73.4893 307.542 73.4893 306.425 72.3616 306.425 70.5106ZM302.819 70.5106C302.819 74.3829 305.489 76.9467 308.829 76.9467 312.17 76.9467 314.84 74.3829 314.84 70.5106 314.84 66.6382 312.17 64.0106 308.808 64.0106 305.446 64.0106 302.819 66.6169 302.819 70.5106Z" fill="#14385B" transform="matrix(1 0 0 1.00082 481.16 279.136)"/><path d="M318.819 76.6595 323.159 76.6595 326.766 64.2978 323 64.2978 321.372 70.8723C321.17 71.6914 320.978 73.0106 320.978 73.0106L320.936 73.0106C320.936 73.0106 320.755 71.6595 320.542 70.8723L318.893 64.2978 315.149 64.2978 318.808 76.6595Z" fill="#14385B" transform="matrix(1 0 0 1.00082 481.16 279.136)"/><path d="M330.67 72.7446C330.67 71.7127 331.968 71.3191 333.095 71.3191L333.425 71.3191 333.425 71.585C333.425 72.6063 332.606 73.7765 331.67 73.7765 330.968 73.7765 330.659 73.3191 330.659 72.7446ZM327.085 72.9574C327.085 75.4042 328.712 76.9467 330.691 76.9467 332.915 76.9467 333.691 75.1488 333.691 75.1488L333.734 75.1488C333.734 75.1488 333.691 75.5106 333.691 75.9148L333.691 76.6595 336.946 76.6595 336.946 69.0531C336.946 65.9042 335.159 64.0106 332.17 64.0106 329.553 64.0106 327.723 65.617 327.723 65.617L328.957 68.5425C328.957 68.5425 330.478 67.3723 331.819 67.3723 332.702 67.3723 333.383 67.702 333.383 68.7446L333.383 68.9574 333.234 68.9574C331.585 68.9574 327.085 69.3616 327.085 72.968Z" fill="#14385B" transform="matrix(1 0 0 1.00082 481.16 279.136)"/><path d="M338.446 70.4574C338.446 73.8723 340.563 76.9467 344.351 76.9467 347.319 76.9467 348.893 74.9042 348.893 74.9042L347.595 71.9999C347.595 71.9999 346.17 73.4893 344.691 73.4893 342.904 73.4893 342.032 71.8723 342.032 70.4254 342.032 68.9786 342.872 67.468 344.563 67.468 346.021 67.468 347.053 68.6701 347.053 68.6701L348.553 65.8829C348.553 65.8829 347.212 64.0106 344.329 64.0106 340.521 64.0106 338.425 67.1489 338.425 70.4574Z" fill="#14385B" transform="matrix(1 0 0 1.00082 481.16 279.136)"/><path d="M350.383 76.6595 353.946 76.6595 353.946 64.2978 350.383 64.2978 350.383 76.6595ZM350.425 62.7233 353.904 62.7233 353.904 59.4787 350.425 59.4787 350.425 62.7233Z" fill="#14385B" transform="matrix(1 0 0 1.00082 481.16 279.136)"/><path d="M360.138 63.0957 362.893 63.0957 365.319 59.4893 361.797 59.4893 360.127 63.0957ZM359.212 70.5106C359.212 68.6382 360.319 67.4574 361.617 67.4574 362.914 67.4574 364.021 68.6382 364.021 70.5106 364.021 72.3829 362.904 73.4893 361.617 73.4893 360.329 73.4893 359.212 72.3616 359.212 70.5106ZM355.617 70.5106C355.617 74.3829 358.287 76.9467 361.627 76.9467 364.968 76.9467 367.638 74.3829 367.638 70.5106 367.638 66.6382 364.968 64.0106 361.606 64.0106 358.244 64.0106 355.617 66.6169 355.617 70.5106Z" fill="#14385B" transform="matrix(1 0 0 1.00082 481.16 279.136)"/><path d="M369.297 76.6595 372.861 76.6595 372.861 71.1914C372.861 70.585 372.925 70.0425 373.063 69.5638 373.372 68.5106 374.053 67.7872 375.159 67.7872 375.936 67.7872 376.329 68.2659 376.329 69.4148L376.329 76.6701 379.893 76.6701 379.893 68.6489C379.893 65.1701 378.223 64.0212 376.085 64.0212 374.212 64.0212 373.202 65.2021 372.712 66.1489L372.67 66.1489C372.67 66.1489 372.712 65.7872 372.712 65.3829L372.712 64.3084 369.297 64.3084 369.297 76.6701Z" fill="#14385B" transform="matrix(1 0 0 1.00082 481.16 279.136)"/><path d="M119.925 97.7127C120.106 96.7978 120.606 95.9361 121.638 95.9361 122.479 95.9361 123.042 96.7765 123.042 97.7127L119.936 97.7127ZM116.202 99.2765C116.202 102.564 118.245 105.755 122.021 105.755 124.84 105.755 126.553 103.957 126.553 103.957L125.234 101.053C125.234 101.053 123.83 102.298 122.308 102.298 121.181 102.298 120.106 101.606 119.84 100.085L126.532 100.085C126.532 100.085 126.617 99.1914 126.617 98.7871 126.617 95.351 124.851 92.8084 121.723 92.8084 118.308 92.8084 116.213 95.6382 116.213 99.2658Z" fill="#14385B" transform="matrix(1 0 0 1.00082 481.16 279.136)"/><path d="M128.362 105.468 131.925 105.468 131.925 99.9893C131.925 99.3935 131.989 98.8403 132.128 98.3616 132.436 97.3084 133.117 96.585 134.223 96.585 135 96.585 135.393 97.0637 135.393 98.2127L135.393 105.468 138.957 105.468 138.957 97.4467C138.957 93.968 137.287 92.8084 135.149 92.8084 133.276 92.8084 132.266 93.9893 131.776 94.9467L131.734 94.9467C131.734 94.9467 131.776 94.585 131.776 94.1807L131.776 93.0956 128.362 93.0956 128.362 105.457Z" fill="#14385B" transform="matrix(1 0 0 1.00082 481.16 279.136)"/><path d="M145.755 105.468 149.372 105.468 149.83 97.7339C149.915 96.4361 149.83 94.851 149.83 94.851L149.872 94.851C149.872 94.851 150.362 96.6488 150.691 97.7339L152.234 102.702 155.319 102.702 156.862 97.7339C157.191 96.6488 157.681 94.851 157.681 94.851L157.723 94.851C157.723 94.851 157.638 96.4361 157.723 97.7339L158.181 105.468 161.787 105.468 160.596 88.2978 156.681 88.2978 154.542 95.5531C154.213 96.6595 153.798 98.3829 153.798 98.3829L153.755 98.3829C153.755 98.3829 153.34 96.6488 153.01 95.5531L150.872 88.2978 146.957 88.2978 145.745 105.468Z" fill="#14385B" transform="matrix(1 0 0 1.00082 481.16 279.136)"/><path d="M167.159 97.7127C167.34 96.7978 167.84 95.9361 168.872 95.9361 169.713 95.9361 170.276 96.7765 170.276 97.7127L167.17 97.7127ZM163.436 99.2765C163.436 102.564 165.479 105.755 169.266 105.755 172.085 105.755 173.798 103.957 173.798 103.957L172.479 101.053C172.479 101.053 171.074 102.298 169.553 102.298 168.425 102.298 167.351 101.606 167.085 100.085L173.776 100.085C173.776 100.085 173.861 99.1914 173.861 98.7871 173.861 95.351 172.096 92.8084 168.968 92.8084 165.553 92.8084 163.447 95.6382 163.447 99.2658Z" fill="#14385B" transform="matrix(1 0 0 1.00082 481.16 279.136)"/><path d="M178.457 99.2765C178.457 97.3829 179.425 96.319 180.532 96.319 181.936 96.319 182.606 97.7871 182.606 99.2765 182.606 101.415 181.596 102.33 180.532 102.33 179.298 102.33 178.457 101.128 178.457 99.2765ZM174.872 99.2765C174.872 103.117 176.766 105.755 179.649 105.755 181.83 105.755 182.713 103.957 182.713 103.957L182.755 103.957C182.755 103.957 182.734 104.266 182.734 104.659L182.734 105.479 186.064 105.479 186.064 88.3084 182.5 88.3084 182.5 93.2552C182.5 93.5637 182.521 93.8084 182.521 93.8084L182.479 93.8084C182.479 93.8084 181.84 92.819 179.702 92.819 176.883 92.819 174.861 95.3616 174.861 99.2765Z" fill="#14385B" transform="matrix(1 0 0 1.00082 481.16 279.136)"/><path d="M188.521 105.468 192.085 105.468 192.085 93.1063 188.521 93.1063 188.521 105.468ZM188.564 91.5424 192.042 91.5424 192.042 88.2978 188.564 88.2978 188.564 91.5424Z" fill="#14385B" transform="matrix(1 0 0 1.00082 481.16 279.136)"/><path d="M193.744 99.2765C193.744 102.681 195.861 105.755 199.649 105.755 202.617 105.755 204.191 103.713 204.191 103.713L202.893 100.808C202.893 100.808 201.468 102.298 199.989 102.298 198.202 102.298 197.34 100.691 197.34 99.2233 197.34 97.7552 198.181 96.2658 199.872 96.2658 201.33 96.2658 202.361 97.468 202.361 97.468L203.861 94.6807C203.861 94.6807 202.521 92.8084 199.638 92.8084 195.83 92.8084 193.734 95.9573 193.734 99.2658Z" fill="#14385B" transform="matrix(1 0 0 1.00082 481.16 279.136)"/><path d="M205.681 105.468 209.244 105.468 209.244 93.1063 205.681 93.1063 205.681 105.468ZM205.723 91.5424 209.202 91.5424 209.202 88.2978 205.723 88.2978 205.723 91.5424Z" fill="#14385B" transform="matrix(1 0 0 1.00082 481.16 279.136)"/><path d="M211.691 105.468 215.255 105.468 215.255 99.9893C215.255 99.3935 215.319 98.8403 215.457 98.3616 215.766 97.3084 216.447 96.585 217.553 96.585 218.34 96.585 218.723 97.0637 218.723 98.2127L218.723 105.468 222.287 105.468 222.287 97.4467C222.287 93.968 220.617 92.8084 218.478 92.8084 216.606 92.8084 215.596 93.9893 215.106 94.9467L215.064 94.9467C215.064 94.9467 215.106 94.585 215.106 94.1807L215.106 93.0956 211.691 93.0956 211.691 105.457Z" fill="#14385B" transform="matrix(1 0 0 1.00082 481.16 279.136)"/><path d="M227.372 101.553C227.372 100.521 228.67 100.138 229.798 100.138L230.127 100.138 230.127 100.404C230.127 101.415 229.308 102.585 228.383 102.585 227.681 102.585 227.372 102.128 227.372 101.553ZM223.798 101.776C223.798 104.223 225.425 105.766 227.404 105.766 229.627 105.766 230.404 103.968 230.404 103.968L230.447 103.968C230.447 103.968 230.404 104.33 230.404 104.734L230.404 105.479 233.659 105.479 233.659 97.8722C233.659 94.7233 231.872 92.8297 228.883 92.8297 226.266 92.8297 224.436 94.4361 224.436 94.4361L225.67 97.3616C225.67 97.3616 227.191 96.1807 228.532 96.1807 229.415 96.1807 230.095 96.5212 230.095 97.5531L230.095 97.7658 229.957 97.7658C228.308 97.7658 223.808 98.1701 223.808 101.776Z" fill="#14385B" transform="matrix(1 0 0 1.00082 481.16 279.136)"/><path d="M114 42.7765C114 42.7765 115.585 44.3617 117.628 44.3617 119.234 44.3617 120.149 43.5744 120.149 42.6063 120.149 41.2234 118.766 40.6595 116.862 40.6595L115.628 40.6595 114.713 38.5638 117.032 35.7766C117.872 34.7659 118.564 34.1276 118.564 34.1276L118.564 34.0744C118.564 34.0744 118 34.2021 116.883 34.2021L112.659 34.2021 112.659 30.5 123.798 30.5 123.798 33.1915 120.213 37.3191C122.83 37.8829 124.489 39.9574 124.489 42.4255 124.489 45.4361 122.362 48.4468 117.947 48.4468 114 48.4468 111.925 46.1276 111.925 46.1276L114 42.7978Z" fill="#14385B" transform="matrix(1 0 0 1.00082 481.16 279.136)"/><path d="M128.489 42.7765C128.489 42.7765 130.074 44.3617 132.117 44.3617 133.723 44.3617 134.638 43.5744 134.638 42.6063 134.638 41.2234 133.255 40.6595 131.351 40.6595L130.117 40.6595 129.202 38.5638 131.521 35.7766C132.362 34.7659 133.053 34.1276 133.053 34.1276L133.053 34.0744C133.053 34.0744 132.489 34.2021 131.372 34.2021L127.149 34.2021 127.149 30.5 138.287 30.5 138.287 33.1915 134.702 37.3191C137.319 37.8829 138.979 39.9574 138.979 42.4255 138.979 45.4361 136.851 48.4468 132.436 48.4468 128.489 48.4468 126.415 46.1276 126.415 46.1276L128.489 42.7978Z" fill="#14385B" transform="matrix(1 0 0 1.00082 481.16 279.136)"/><path d="M118.393 115.181 120.106 115.181 119.191 119.33 116.968 119.33 118.393 115.181ZM121.489 115.181 123.202 115.181 122.308 119.33 120.085 119.33 121.489 115.181Z" fill="#14385B" transform="matrix(1 0 0 1.00082 481.16 279.136)"/><path d="M125.415 115.404 130.245 115.404C132.681 115.404 134.415 116.659 134.415 118.883 134.415 120.138 133.808 121.223 132.776 121.776L132.776 121.819C134.266 122.255 134.968 123.628 134.968 125 134.968 127.702 132.798 128.915 130.308 128.915L125.415 128.915 125.415 115.404ZM130.245 120.925C131.308 120.925 131.915 120.159 131.915 119.191 131.915 118.223 131.34 117.521 130.202 117.521L127.862 117.521 127.862 120.925 130.245 120.925ZM130.489 126.808C131.745 126.808 132.447 125.989 132.447 124.851 132.447 123.713 131.723 122.915 130.489 122.915L127.862 122.915 127.862 126.819 130.489 126.819Z" fill="#14385B" transform="matrix(1 0 0 1.00082 481.16 279.136)"/><path d="M137.245 119.213 139.564 119.213 139.564 120.883C139.564 121.245 139.521 121.564 139.521 121.564L139.564 121.564C140 120.181 141.159 119.074 142.649 119.074 142.872 119.074 143.085 119.117 143.085 119.117L143.085 121.5C143.085 121.5 142.84 121.457 142.51 121.457 141.479 121.457 140.319 122.042 139.862 123.489 139.713 123.968 139.649 124.5 139.649 125.064L139.649 128.904 137.234 128.904 137.234 119.202Z" fill="#14385B" transform="matrix(1 0 0 1.00082 481.16 279.136)"/><path d="M148.968 118.989C151.766 118.989 153.266 121.021 153.266 123.596 153.266 123.883 153.213 124.532 153.213 124.532L146.521 124.532C146.67 126.223 147.989 127.096 149.436 127.096 151 127.096 152.234 126.032 152.234 126.032L153.17 127.766C153.17 127.766 151.681 129.159 149.266 129.159 146.053 129.159 144.053 126.84 144.053 124.074 144.053 121.085 146.085 119 148.979 119ZM150.83 122.862C150.787 121.553 149.979 120.84 148.904 120.84 147.67 120.84 146.808 121.596 146.585 122.862L150.83 122.862Z" fill="#14385B" transform="matrix(1 0 0 1.00082 481.16 279.136)"/><path d="M160.191 122.83 160.51 122.83 160.51 122.702C160.51 121.425 159.713 120.989 158.649 120.989 157.255 120.989 155.989 121.925 155.989 121.925L155.074 120.191C155.074 120.191 156.574 118.989 158.883 118.989 161.436 118.989 162.915 120.393 162.915 122.851L162.915 128.925 160.691 128.925 160.691 128.128C160.691 127.745 160.734 127.447 160.734 127.447L160.691 127.447C160.691 127.447 159.947 129.159 157.745 129.159 156.01 129.159 154.457 128.074 154.457 126.138 154.457 123.053 158.627 122.851 160.202 122.851ZM158.351 127.266C159.627 127.266 160.542 125.893 160.542 124.713L160.542 124.489 160.127 124.489C158.893 124.489 156.893 124.659 156.893 126.01 156.893 126.659 157.372 127.266 158.362 127.266Z" fill="#14385B" transform="matrix(1 0 0 1.00082 481.16 279.136)"/><path d="M165.436 115.404 167.851 115.404 167.851 122.638 169.053 122.638 171.393 119.213 174.074 119.213 171.01 123.553 171.01 123.596 174.457 128.925 171.681 128.925 169.117 124.681 167.862 124.681 167.862 128.925 165.447 128.925 165.447 115.415Z" fill="#14385B" transform="matrix(1 0 0 1.00082 481.16 279.136)"/><path d="M175.936 115.404 178.33 115.404 178.33 117.553 175.936 117.553 175.936 115.404ZM175.936 119.213 178.351 119.213 178.351 128.915 175.936 128.915 175.936 119.213Z" fill="#14385B" transform="matrix(1 0 0 1.00082 481.16 279.136)"/><path d="M181.021 119.213 183.34 119.213 183.34 120.33C183.34 120.691 183.298 121 183.298 121L183.34 121C183.755 120.181 184.83 118.979 186.787 118.979 188.936 118.979 190.159 120.096 190.159 122.67L190.159 128.915 187.766 128.915 187.766 123.17C187.766 121.989 187.457 121.191 186.223 121.191 184.989 121.191 183.979 122.011 183.617 123.17 183.479 123.574 183.447 124.01 183.447 124.468L183.447 128.915 181.032 128.915 181.032 119.213Z" fill="#14385B" transform="matrix(1 0 0 1.00082 481.16 279.136)"/><path d="M196.351 130.862C197.84 130.862 199.096 130.234 199.096 128.5L199.096 127.925C199.096 127.702 199.138 127.415 199.138 127.415L199.096 127.415C198.521 128.266 197.691 128.723 196.393 128.723 193.617 128.723 192.032 126.479 192.032 123.819 192.032 121.159 193.532 118.989 196.33 118.989 198.436 118.989 199.202 120.223 199.202 120.223L199.255 120.223C199.255 120.223 199.234 120.106 199.234 119.957L199.234 119.213 201.5 119.213 201.5 128.33C201.5 131.659 198.915 132.915 196.383 132.915 195.17 132.915 193.872 132.574 192.936 132.074L193.659 130.234C193.659 130.234 194.872 130.862 196.34 130.862ZM199.149 123.84C199.149 121.628 198.064 121.042 196.755 121.042 195.287 121.042 194.468 122.106 194.468 123.745 194.468 125.383 195.34 126.691 196.904 126.691 198.064 126.691 199.149 126.021 199.149 123.84Z" fill="#14385B" transform="matrix(1 0 0 1.00082 481.16 279.136)"/><path d="M209.181 115.404 214.01 115.404C216.447 115.404 218.181 116.659 218.181 118.883 218.181 120.138 217.574 121.223 216.542 121.776L216.542 121.819C218.032 122.255 218.734 123.628 218.734 125 218.734 127.702 216.564 128.915 214.074 128.915L209.181 128.915 209.181 115.404ZM214.01 120.925C215.074 120.925 215.681 120.159 215.681 119.191 215.681 118.223 215.106 117.521 213.968 117.521L211.627 117.521 211.627 120.925 214.01 120.925ZM214.255 126.808C215.51 126.808 216.213 125.989 216.213 124.851 216.213 123.713 215.489 122.915 214.255 122.915L211.627 122.915 211.627 126.819 214.255 126.819Z" fill="#14385B" transform="matrix(1 0 0 1.00082 481.16 279.136)"/><path d="M225.947 122.83 226.266 122.83 226.266 122.702C226.266 121.425 225.468 120.989 224.404 120.989 223.01 120.989 221.744 121.925 221.744 121.925L220.83 120.191C220.83 120.191 222.33 118.989 224.638 118.989 227.191 118.989 228.67 120.393 228.67 122.851L228.67 128.925 226.447 128.925 226.447 128.128C226.447 127.745 226.489 127.447 226.489 127.447L226.447 127.447C226.447 127.447 225.702 129.159 223.5 129.159 221.766 129.159 220.213 128.074 220.213 126.138 220.213 123.053 224.383 122.851 225.957 122.851ZM224.095 127.266C225.372 127.266 226.287 125.893 226.287 124.713L226.287 124.489 225.872 124.489C224.638 124.489 222.638 124.659 222.638 126.01 222.638 126.659 223.117 127.266 224.106 127.266Z" fill="#14385B" transform="matrix(1 0 0 1.00082 481.16 279.136)"/><path d="M231.181 119.213 233.5 119.213 233.5 120.883C233.5 121.245 233.457 121.564 233.457 121.564L233.5 121.564C233.936 120.181 235.095 119.074 236.585 119.074 236.808 119.074 237.021 119.117 237.021 119.117L237.021 121.5C237.021 121.5 236.776 121.457 236.447 121.457 235.415 121.457 234.255 122.042 233.798 123.489 233.649 123.968 233.585 124.5 233.585 125.064L233.585 128.904 231.17 128.904 231.17 119.202Z" fill="#14385B" transform="matrix(1 0 0 1.00082 481.16 279.136)"/><path d="M238.659 119.213 240.978 119.213 240.978 120.883C240.978 121.245 240.936 121.564 240.936 121.564L240.978 121.564C241.415 120.181 242.574 119.074 244.064 119.074 244.287 119.074 244.5 119.117 244.5 119.117L244.5 121.5C244.5 121.5 244.255 121.457 243.925 121.457 242.893 121.457 241.734 122.042 241.276 123.489 241.127 123.968 241.064 124.5 241.064 125.064L241.064 128.904 238.649 128.904 238.649 119.202Z" fill="#14385B" transform="matrix(1 0 0 1.00082 481.16 279.136)"/><path d="M246.138 115.404 248.532 115.404 248.532 117.553 246.138 117.553 246.138 115.404ZM246.138 119.213 248.553 119.213 248.553 128.915 246.138 128.915 246.138 119.213Z" fill="#14385B" transform="matrix(1 0 0 1.00082 481.16 279.136)"/><path d="M255.457 118.989C258.255 118.989 259.755 121.021 259.755 123.596 259.755 123.883 259.702 124.532 259.702 124.532L253.01 124.532C253.159 126.223 254.478 127.096 255.925 127.096 257.489 127.096 258.723 126.032 258.723 126.032L259.659 127.766C259.659 127.766 258.17 129.159 255.755 129.159 252.542 129.159 250.542 126.84 250.542 124.074 250.542 121.085 252.574 119 255.468 119ZM257.329 122.862C257.287 121.553 256.478 120.84 255.404 120.84 254.17 120.84 253.308 121.596 253.085 122.862L257.329 122.862Z" fill="#14385B" transform="matrix(1 0 0 1.00082 481.16 279.136)"/><path d="M261.766 119.213 264.085 119.213 264.085 120.883C264.085 121.245 264.042 121.564 264.042 121.564L264.085 121.564C264.521 120.181 265.681 119.074 267.17 119.074 267.393 119.074 267.606 119.117 267.606 119.117L267.606 121.5C267.606 121.5 267.361 121.457 267.032 121.457 266 121.457 264.84 122.042 264.383 123.489 264.234 123.968 264.17 124.5 264.17 125.064L264.17 128.904 261.755 128.904 261.755 119.202Z" fill="#14385B" transform="matrix(1 0 0 1.00082 481.16 279.136)"/><path d="M269.521 126.021C269.521 126.021 270.585 127.085 272.17 127.085 272.851 127.085 273.447 126.776 273.447 126.213 273.447 124.766 268.723 124.957 268.723 121.84 268.723 120.032 270.34 118.989 272.436 118.989 274.532 118.989 275.691 120.096 275.691 120.096L274.798 121.883C274.798 121.883 273.904 121.042 272.415 121.042 271.787 121.042 271.181 121.308 271.181 121.915 271.181 123.287 275.893 123.117 275.893 126.234 275.893 127.851 274.489 129.149 272.181 129.149 269.766 129.149 268.415 127.723 268.415 127.723L269.521 126.032Z" fill="#14385B" transform="matrix(1 0 0 1.00082 481.16 279.136)"/><path d="M278.053 119.213 280.446 119.213 280.446 121.628 278.053 121.628 278.053 119.213ZM278.053 126.5 280.446 126.5 280.446 128.915 278.053 128.915 278.053 126.5Z" fill="#14385B" transform="matrix(1 0 0 1.00082 481.16 279.136)"/><path d="M291.127 117.521 286.691 117.521 286.691 115.404 298.01 115.404 298.01 117.521 293.574 117.521 293.574 128.915 291.117 128.915 291.117 117.521Z" fill="#14385B" transform="matrix(1 0 0 1.00082 481.16 279.136)"/><path d="M299.425 115.404 301.84 115.404 301.84 120.085C301.84 120.564 301.798 120.904 301.798 120.904L301.84 120.904C302.319 119.968 303.5 118.979 305.191 118.979 307.34 118.979 308.563 120.096 308.563 122.67L308.563 128.915 306.17 128.915 306.17 123.17C306.17 121.989 305.861 121.191 304.627 121.191 303.393 121.191 302.361 122.032 302 123.213 301.883 123.596 301.851 124.01 301.851 124.468L301.851 128.915 299.436 128.915 299.436 115.404Z" fill="#14385B" transform="matrix(1 0 0 1.00082 481.16 279.136)"/><path d="M315.329 118.989C318.127 118.989 319.627 121.021 319.627 123.596 319.627 123.883 319.574 124.532 319.574 124.532L312.883 124.532C313.032 126.223 314.351 127.096 315.798 127.096 317.361 127.096 318.595 126.032 318.595 126.032L319.532 127.766C319.532 127.766 318.042 129.159 315.627 129.159 312.415 129.159 310.415 126.84 310.415 124.074 310.415 121.085 312.446 119 315.34 119ZM317.191 122.862C317.149 121.553 316.34 120.84 315.266 120.84 314.032 120.84 313.17 121.596 312.946 122.862L317.191 122.862Z" fill="#14385B" transform="matrix(1 0 0 1.00082 481.16 279.136)"/><path d="M326.638 115.404 331.244 115.404C335.415 115.404 338.127 117.883 338.127 122.138 338.127 126.393 335.404 128.915 331.244 128.915L326.638 128.915 326.638 115.404ZM331.106 126.808C333.851 126.808 335.595 125.191 335.595 122.149 335.595 119.106 333.808 117.521 331.106 117.521L329.085 117.521 329.085 126.808 331.106 126.808Z" fill="#14385B" transform="matrix(1 0 0 1.00082 481.16 279.136)"/><path d="M345.244 122.83 345.563 122.83 345.563 122.702C345.563 121.425 344.766 120.989 343.702 120.989 342.308 120.989 341.042 121.925 341.042 121.925L340.127 120.191C340.127 120.191 341.627 118.989 343.936 118.989 346.489 118.989 347.968 120.393 347.968 122.851L347.968 128.925 345.744 128.925 345.744 128.128C345.744 127.745 345.787 127.447 345.787 127.447L345.744 127.447C345.744 127.447 345 129.159 342.797 129.159 341.063 129.159 339.51 128.074 339.51 126.138 339.51 123.053 343.68 122.851 345.255 122.851ZM343.393 127.266C344.67 127.266 345.585 125.893 345.585 124.713L345.585 124.489 345.17 124.489C343.936 124.489 341.936 124.659 341.936 126.01 341.936 126.659 342.414 127.266 343.404 127.266Z" fill="#14385B" transform="matrix(1 0 0 1.00082 481.16 279.136)"/><path d="M349.34 119.213 351.893 119.213 353.585 125.585C353.712 126.096 353.776 126.617 353.776 126.617L353.819 126.617C353.819 126.617 353.914 126.106 354.042 125.585L355.829 119.234 357.978 119.234 359.766 125.585C359.904 126.096 359.978 126.617 359.978 126.617L360.021 126.617C360.021 126.617 360.095 126.106 360.234 125.585L361.925 119.213 364.436 119.213 361.489 128.915 358.808 128.915 357.17 123.383C357.021 122.872 356.925 122.34 356.925 122.34L356.883 122.34C356.883 122.34 356.808 122.872 356.659 123.383L355.021 128.915 352.319 128.915 349.351 119.213Z" fill="#14385B" transform="matrix(1 0 0 1.00082 481.16 279.136)"/><path d="M366.021 119.213 368.34 119.213 368.34 120.33C368.34 120.691 368.297 121 368.297 121L368.34 121C368.755 120.181 369.829 118.979 371.787 118.979 373.936 118.979 375.159 120.096 375.159 122.67L375.159 128.915 372.766 128.915 372.766 123.17C372.766 121.989 372.457 121.191 371.223 121.191 369.989 121.191 368.978 122.011 368.617 123.17 368.478 123.574 368.446 124.01 368.446 124.468L368.446 128.915 366.032 128.915 366.032 119.213Z" fill="#14385B" transform="matrix(1 0 0 1.00082 481.16 279.136)"/><path d="M131.383 141.819C134.351 141.819 136.734 143.936 136.734 146.893 136.734 149.851 134.351 151.979 131.404 151.979 128.457 151.979 126.053 149.883 126.053 146.893 126.053 143.904 128.436 141.819 131.383 141.819ZM131.404 149.925C132.968 149.925 134.276 148.713 134.276 146.904 134.276 145.096 132.968 143.883 131.404 143.883 129.84 143.883 128.51 145.117 128.51 146.904 128.51 148.691 129.819 149.925 131.404 149.925Z" fill="#14385B" transform="matrix(1 0 0 1.00082 481.16 279.136)"/><path d="M139.17 144.127 137.968 144.127 137.968 142.202 139.17 142.202 139.17 141.766C139.17 138.585 141.776 138.17 143.127 138.17 143.617 138.17 143.947 138.223 143.947 138.223L143.947 140.276C143.947 140.276 143.734 140.234 143.457 140.234 142.776 140.234 141.596 140.404 141.596 141.808L141.596 142.191 143.67 142.191 143.67 144.117 141.596 144.117 141.596 151.745 139.181 151.745 139.181 144.117Z" fill="#14385B" transform="matrix(1 0 0 1.00082 481.16 279.136)"/><path d="M154.83 145.659 155.149 145.659 155.149 145.532C155.149 144.255 154.351 143.819 153.287 143.819 151.893 143.819 150.627 144.755 150.627 144.755L149.713 143.021C149.713 143.021 151.213 141.819 153.521 141.819 156.074 141.819 157.553 143.223 157.553 145.681L157.553 151.755 155.33 151.755 155.33 150.957C155.33 150.574 155.372 150.276 155.372 150.276L155.33 150.276C155.33 150.276 154.585 151.989 152.383 151.989 150.649 151.989 149.096 150.904 149.096 148.968 149.096 145.883 153.266 145.681 154.84 145.681ZM152.989 150.096C154.266 150.096 155.181 148.723 155.181 147.542L155.181 147.319 154.766 147.319C153.532 147.319 151.532 147.489 151.532 148.84 151.532 149.489 152.01 150.096 153 150.096Z" fill="#14385B" transform="matrix(1 0 0 1.00082 481.16 279.136)"/><path d="M165.074 138.245 167.532 138.245 172.649 146.042C173.159 146.819 173.776 148.138 173.776 148.138L173.819 148.138C173.819 148.138 173.691 146.84 173.691 146.042L173.691 138.245 176.127 138.245 176.127 151.755 173.691 151.755 168.574 143.979C168.064 143.202 167.447 141.883 167.447 141.883L167.404 141.883C167.404 141.883 167.542 143.181 167.542 143.979L167.542 151.755 165.085 151.755 165.085 138.245Z" fill="#14385B" transform="matrix(1 0 0 1.00082 481.16 279.136)"/><path d="M183.393 141.819C186.191 141.819 187.691 143.851 187.691 146.425 187.691 146.713 187.638 147.362 187.638 147.362L180.947 147.362C181.096 149.053 182.415 149.925 183.861 149.925 185.425 149.925 186.659 148.862 186.659 148.862L187.596 150.596C187.596 150.596 186.106 151.989 183.691 151.989 180.479 151.989 178.479 149.67 178.479 146.904 178.479 143.915 180.51 141.83 183.404 141.83ZM185.255 145.702C185.213 144.393 184.404 143.681 183.33 143.681 182.096 143.681 181.234 144.447 181.01 145.702L185.255 145.702Z" fill="#14385B" transform="matrix(1 0 0 1.00082 481.16 279.136)"/><path d="M188.627 142.053 191.181 142.053 192.872 148.425C193 148.936 193.064 149.457 193.064 149.457L193.106 149.457C193.106 149.457 193.202 148.947 193.33 148.425L195.117 142.074 197.266 142.074 199.053 148.425C199.191 148.936 199.266 149.457 199.266 149.457L199.308 149.457C199.308 149.457 199.383 148.947 199.521 148.425L201.213 142.053 203.723 142.053 200.776 151.755 198.096 151.755 196.457 146.223C196.308 145.713 196.213 145.181 196.213 145.181L196.17 145.181C196.17 145.181 196.096 145.713 195.947 146.223L194.308 151.755 191.606 151.755 188.638 142.053Z" fill="#14385B" transform="matrix(1 0 0 1.00082 481.16 279.136)"/><path d="M211.01 138.245 213.638 138.245 216.287 144.925C216.596 145.723 216.968 146.904 216.968 146.904L217.01 146.904C217.01 146.904 217.372 145.723 217.681 144.925L220.33 138.245 222.957 138.245 224.042 151.755 221.606 151.755 221.032 144.202C220.978 143.308 221.01 142.106 221.01 142.106L220.968 142.106C220.968 142.106 220.564 143.415 220.244 144.202L218.053 149.436 215.904 149.436 213.734 144.202C213.415 143.425 212.989 142.085 212.989 142.085L212.947 142.085C212.947 142.085 212.989 143.298 212.925 144.202L212.351 151.755 209.893 151.755 211 138.245Z" fill="#14385B" transform="matrix(1 0 0 1.00082 481.16 279.136)"/><path d="M230.893 141.819C233.691 141.819 235.191 143.851 235.191 146.425 235.191 146.713 235.138 147.362 235.138 147.362L228.447 147.362C228.595 149.053 229.915 149.925 231.361 149.925 232.925 149.925 234.159 148.862 234.159 148.862L235.095 150.596C235.095 150.596 233.606 151.989 231.191 151.989 227.978 151.989 225.978 149.67 225.978 146.904 225.978 143.915 228.01 141.83 230.904 141.83ZM232.755 145.702C232.713 144.393 231.904 143.681 230.83 143.681 229.595 143.681 228.734 144.447 228.51 145.702L232.755 145.702Z" fill="#14385B" transform="matrix(1 0 0 1.00082 481.16 279.136)"/><path d="M240.925 141.819C243.053 141.819 243.723 143.053 243.723 143.053L243.766 143.053C243.766 143.053 243.744 142.808 243.744 142.5L243.744 138.234 246.159 138.234 246.159 151.745 243.872 151.745 243.872 150.947C243.872 150.585 243.915 150.319 243.915 150.319L243.872 150.319C243.872 150.319 243.053 151.979 240.83 151.979 238.202 151.979 236.532 149.904 236.532 146.893 236.532 143.883 238.361 141.819 240.925 141.819ZM241.383 149.947C242.638 149.947 243.819 149.032 243.819 146.883 243.819 145.383 243.021 143.893 241.404 143.893 240.074 143.893 238.968 144.979 238.968 146.904 238.968 148.83 239.957 149.947 241.383 149.947Z" fill="#14385B" transform="matrix(1 0 0 1.00082 481.16 279.136)"/><path d="M248.819 138.245 251.212 138.245 251.212 140.393 248.819 140.393 248.819 138.245ZM248.819 142.053 251.234 142.053 251.234 151.755 248.819 151.755 248.819 142.053Z" fill="#14385B" transform="matrix(1 0 0 1.00082 481.16 279.136)"/><path d="M258.468 141.819C261 141.819 262.191 143.266 262.191 143.266L261.127 144.925C261.127 144.925 260.117 143.883 258.595 143.883 256.808 143.883 255.649 145.234 255.649 146.893 255.649 148.553 256.829 149.936 258.67 149.936 260.308 149.936 261.521 148.702 261.521 148.702L262.457 150.415C262.457 150.415 261.064 151.989 258.457 151.989 255.244 151.989 253.191 149.723 253.191 146.904 253.191 144.085 255.244 141.83 258.457 141.83Z" fill="#14385B" transform="matrix(1 0 0 1.00082 481.16 279.136)"/><path d="M269.202 145.659 269.521 145.659 269.521 145.532C269.521 144.255 268.723 143.819 267.659 143.819 266.266 143.819 265 144.755 265 144.755L264.085 143.021C264.085 143.021 265.585 141.819 267.893 141.819 270.447 141.819 271.925 143.223 271.925 145.681L271.925 151.755 269.702 151.755 269.702 150.957C269.702 150.574 269.744 150.276 269.744 150.276L269.702 150.276C269.702 150.276 268.957 151.989 266.755 151.989 265.021 151.989 263.468 150.904 263.468 148.968 263.468 145.883 267.638 145.681 269.212 145.681ZM267.351 150.096C268.627 150.096 269.542 148.723 269.542 147.542L269.542 147.319 269.127 147.319C267.893 147.319 265.893 147.489 265.893 148.84 265.893 149.489 266.372 150.096 267.361 150.096Z" fill="#14385B" transform="matrix(1 0 0 1.00082 481.16 279.136)"/><path d="M274.298 138.245 276.691 138.245 276.691 148.362C276.691 149.425 277.053 149.691 277.681 149.691 277.872 149.691 278.042 149.67 278.042 149.67L278.042 151.787C278.042 151.787 277.681 151.84 277.287 151.84 275.957 151.84 274.298 151.5 274.298 148.723L274.298 138.245Z" fill="#14385B" transform="matrix(1 0 0 1.00082 481.16 279.136)"/><path d="M284.84 138.245 292.925 138.245 292.925 140.362 287.298 140.362 287.298 143.904 291.84 143.904 291.84 146.021 287.298 146.021 287.298 149.659 293.234 149.659 293.234 151.776 284.84 151.776 284.84 138.266Z" fill="#14385B" transform="matrix(1 0 0 1.00082 481.16 279.136)"/><path d="M295.404 142.053 297.723 142.053 297.723 143.723C297.723 144.085 297.681 144.404 297.681 144.404L297.723 144.404C298.159 143.021 299.319 141.915 300.808 141.915 301.032 141.915 301.244 141.957 301.244 141.957L301.244 144.34C301.244 144.34 301 144.298 300.67 144.298 299.638 144.298 298.478 144.883 298.021 146.33 297.872 146.808 297.808 147.34 297.808 147.904L297.808 151.745 295.393 151.745 295.393 142.042Z" fill="#14385B" transform="matrix(1 0 0 1.00082 481.16 279.136)"/><path d="M307.808 145.659 308.127 145.659 308.127 145.532C308.127 144.255 307.329 143.819 306.266 143.819 304.872 143.819 303.606 144.755 303.606 144.755L302.691 143.021C302.691 143.021 304.191 141.819 306.5 141.819 309.053 141.819 310.532 143.223 310.532 145.681L310.532 151.755 308.308 151.755 308.308 150.957C308.308 150.574 308.351 150.276 308.351 150.276L308.308 150.276C308.308 150.276 307.563 151.989 305.361 151.989 303.627 151.989 302.074 150.904 302.074 148.968 302.074 145.883 306.244 145.681 307.819 145.681ZM305.968 150.096C307.244 150.096 308.159 148.723 308.159 147.542L308.159 147.319 307.744 147.319C306.51 147.319 304.51 147.489 304.51 148.84 304.51 149.489 304.989 150.096 305.978 150.096Z" fill="#14385B" transform="matrix(1 0 0 1.00082 481.16 279.136)"/><path d="M313.446 138.01 315.691 138.01 314.266 142.181 312.553 142.181 313.446 138.01ZM316.563 138.01 318.787 138.01 317.383 142.181 315.67 142.181 316.563 138.01Z" fill="#14385B" transform="matrix(1 0 0 1.00082 481.16 279.136)"/></g></svg>